<svg xmlns="http://www.w3.org/2000/svg" xmlns:xlink="http://www.w3.org/1999/xlink" width="500" zoomAndPan="magnify" viewBox="0 0 375 374.999991" height="500" preserveAspectRatio="xMidYMid meet" version="1.0"><defs><clipPath id="ba3a82c058"><path d="M 54 14 L 367 14 L 367 366 L 54 366 Z M 54 14 " clip-rule="nonzero"/></clipPath><clipPath id="570334f6b4"><path d="M 292.160156 405.730469 L 19.898438 352.078125 L 95.15625 -29.824219 L 367.417969 23.828125 Z M 292.160156 405.730469 " clip-rule="nonzero"/></clipPath><clipPath id="829c796cec"><path d="M 292.160156 405.730469 L 19.898438 352.078125 L 95.15625 -29.824219 L 367.417969 23.828125 Z M 292.160156 405.730469 " clip-rule="nonzero"/></clipPath><clipPath id="43eca11890"><path d="M 291.941406 405.6875 L 19.960938 352.09375 L 95.371094 -30.578125 L 367.351562 23.019531 Z M 291.941406 405.6875 " clip-rule="nonzero"/></clipPath><clipPath id="696466928f"><path d="M 291.941406 405.6875 L 20.109375 352.121094 L 95.367188 -29.792969 L 367.203125 23.773438 Z M 291.941406 405.6875 " clip-rule="nonzero"/></clipPath></defs><g clip-path="url(#ba3a82c058)"><g clip-path="url(#570334f6b4)"><g clip-path="url(#829c796cec)"><g clip-path="url(#43eca11890)"><g clip-path="url(#696466928f)"><path fill="#ff4f9e" d="M 97.011719 116.175781 C 96.765625 115.808594 96.15625 116.085938 96.308594 116.511719 C 96.988281 118.3125 97.464844 120.308594 97.5625 122.234375 C 97.644531 124.234375 97.113281 126.113281 96.96875 128.070312 C 96.941406 128.617188 97.597656 128.90625 97.855469 128.402344 L 97.867188 128.324219 C 98.023438 128.355469 98.175781 128.386719 98.265625 128.324219 C 104.476562 126.21875 107.710938 114.238281 101.359375 110.605469 C 100.71875 110.238281 99.941406 110.960938 100.203125 111.648438 C 100.542969 112.746094 101.15625 113.265625 101.828125 114.269531 C 102.996094 116.007812 103.03125 117.835938 102.640625 119.824219 C 102.054688 122.800781 100.945312 125.203125 98.476562 126.859375 C 99.625 123.4375 98.574219 119.101562 97.011719 116.175781 Z M 113.589844 273.691406 C 114.078125 274.027344 114.8125 273.535156 114.367188 272.976562 C 113.738281 272.136719 112.925781 271.417969 112.222656 270.570312 C 111.59375 269.730469 110.980469 268.8125 110.441406 267.914062 C 110.132812 267.457031 109.496094 267.890625 109.710938 268.40625 C 110.785156 270.203125 111.933594 272.414062 113.589844 273.691406 Z M 110.578125 252.3125 C 110.703125 252.890625 111.4375 252.800781 111.464844 252.246094 C 111.640625 249.347656 109.527344 247.183594 108.164062 244.851562 C 105.90625 240.996094 105.039062 236.9375 104.734375 232.433594 C 104.6875 231.472656 103.3125 231.597656 103.285156 232.546875 C 103.171875 235.933594 103.917969 239.414062 105.300781 242.464844 C 106.851562 245.863281 109.972656 248.542969 110.578125 252.3125 Z M 255.476562 56.707031 C 254.839844 58.328125 253.652344 60.714844 254.101562 62.46875 C 254.210938 62.726562 254.609375 62.726562 254.730469 62.511719 C 255.109375 61.792969 255.121094 60.921875 255.289062 60.085938 C 255.5 59.011719 255.769531 58.035156 256.195312 57.089844 C 256.378906 56.570312 255.734375 56.203125 255.476562 56.707031 Z M 239.097656 134.574219 C 242.082031 130.324219 244.25 125.75 245.410156 120.664062 C 246.742188 114.738281 245.070312 107.902344 248.566406 102.640625 C 248.886719 102.226562 248.199219 101.691406 247.820312 102.015625 C 244.175781 104.390625 244.660156 108.773438 244.609375 112.648438 C 244.527344 120.328125 242.242188 127.496094 238.257812 134.011719 C 237.921875 134.5 238.75 135.140625 239.097656 134.574219 Z M 202.96875 107.695312 C 202.984375 108.015625 203.425781 108.183594 203.640625 107.90625 C 204.8125 106.394531 204.867188 103.707031 205.074219 101.84375 C 205.101562 101.292969 204.339844 101.140625 204.234375 101.675781 C 204.023438 102.746094 203.8125 103.816406 203.523438 104.871094 C 203.34375 105.789062 202.917969 106.734375 202.96875 107.695312 Z M 79.917969 109.078125 C 82.8125 106.871094 84.535156 105.78125 88.109375 106.566406 C 87.609375 107.5 88.039062 108.929688 88.257812 109.847656 C 88.597656 111.34375 89.289062 112.671875 90.222656 113.964844 C 90.484375 114.253906 91 114.039062 90.832031 113.6875 C 90.203125 112.453125 89.757812 111.09375 89.476562 109.691406 C 89.324219 108.867188 89.535156 107.800781 89.300781 106.960938 C 89.757812 107.050781 90.140625 107.125 90.632812 107.0625 C 91.210938 106.941406 92.050781 106.3125 92.613281 106.261719 C 92.859375 106.234375 93.242188 106.308594 93.546875 106.367188 C 93.683594 107.265625 93.855469 108.015625 93.523438 108.902344 C 93.324219 109.5 94.105469 109.96875 94.394531 109.3125 C 94.699219 108.578125 94.957031 107.679688 94.890625 106.792969 C 96.878906 107.578125 99.066406 108.566406 99.542969 105.726562 C 99.679688 105.039062 98.6875 104.84375 98.476562 105.515625 C 98.066406 106.78125 94.332031 103.984375 93.464844 103.972656 C 92.363281 103.914062 92.441406 104.324219 91.449219 104.527344 C 89.527344 105.019531 88.914062 104.503906 87.15625 104.15625 C 83.945312 103.523438 79.769531 105 78.859375 108.394531 C 78.679688 108.910156 79.445312 109.460938 79.917969 109.078125 Z M 101.054688 105.308594 C 101.898438 105.476562 102.796875 105.332031 103.683594 105.667969 C 104.125 105.835938 104.554688 106.078125 104.910156 106.304688 C 105.519531 106.820312 104.847656 107.007812 104.269531 107.132812 C 103.183594 107.394531 101.871094 107.613281 101.847656 108.957031 C 101.816406 109.503906 102.65625 109.671875 102.914062 109.167969 C 103.339844 108.21875 104.792969 108.503906 105.675781 108.042969 C 106.394531 107.628906 106.957031 106.789062 106.570312 105.917969 C 105.800781 104.179688 102.347656 103.183594 100.730469 104.132812 C 100.273438 104.441406 100.519531 105.203125 101.054688 105.308594 Z M 84.394531 125.832031 C 84.378906 125.90625 84.285156 125.96875 84.179688 126.105469 C 82.382812 127.574219 79.410156 128.972656 76.660156 129.226562 C 80.152344 133.640625 83.386719 136.976562 88.769531 139.070312 C 88.84375 139.082031 88.980469 139.191406 89.058594 139.207031 C 94.691406 138.808594 100.324219 138.015625 105.941406 136.898438 C 103.96875 136.035156 102.042969 134.941406 100.269531 133.878906 C 98.34375 132.78125 96.324219 131.75 95.109375 129.84375 C 90.972656 130.699219 86.816406 129.242188 84.394531 125.832031 Z M 167.46875 141.246094 C 166.261719 142.121094 166.511719 143.28125 166.667969 144.5 C 166.792969 145.476562 165.558594 146.109375 164.792969 145.558594 C 164.089844 145.898438 163.265625 146.054688 162.367188 146.191406 C 161.953125 146.273438 161.3125 146.304688 161.023438 146.5625 C 161.101562 146.578125 161.085938 146.65625 161.160156 146.671875 C 161.34375 146.546875 161.570312 146.59375 161.695312 146.777344 C 162.429688 147.476562 163.332031 147.734375 164.246094 147.914062 C 164.859375 148.035156 165.484375 148.078125 165.886719 148.472656 C 165.976562 148.414062 166.054688 148.429688 166.144531 148.363281 C 168.292969 147.519531 170.304688 145.773438 172.519531 145.414062 C 172.929688 145.339844 173.34375 145.660156 173.5 146.085938 C 173.863281 145.839844 174.152344 145.578125 174.503906 145.410156 C 174.777344 145.226562 175.097656 145.210938 175.34375 145.179688 C 176.085938 144.214844 177.785156 144.867188 177.679688 146.195312 C 178.527344 147.554688 179.003906 149.15625 179.585938 150.617188 C 179.847656 151.304688 180.097656 152.066406 180.433594 152.769531 C 180.371094 152.28125 180.722656 151.714844 181.425781 151.773438 C 182.507812 151.910156 183.894531 150.910156 184.734375 150.285156 C 185.113281 149.960938 185.953125 149.332031 185.90625 148.769531 C 185.859375 148.207031 185.386719 148.191406 185.035156 147.960938 C 184.757812 147.75 184.558594 147.550781 184.464844 147.214844 C 183.960938 146.957031 183.714844 146.195312 184.140625 145.644531 C 184.78125 144.820312 185.480469 144.082031 185.765625 143.03125 C 185.949219 142.507812 186.160156 141.042969 185.316406 140.875 C 184.785156 140.773438 183.671875 141.585938 183.03125 141.617188 C 182.144531 141.679688 181.652344 141.34375 181.074219 140.675781 C 181.074219 140.675781 181.074219 140.675781 181.011719 140.582031 C 180.9375 140.566406 180.859375 140.554688 180.707031 140.523438 C 179.835938 140.113281 179.070312 139.566406 178.226562 139.003906 C 176.894531 138.109375 176.054688 138.339844 174.867188 139.132812 C 174.027344 139.761719 173.207031 140.316406 172.304688 140.453125 C 172.140625 140.898438 171.699219 141.128906 171.160156 141.023438 C 170.015625 140.796875 168.671875 140.375 167.46875 141.246094 Z M 173.042969 174.164062 C 173.027344 174.242188 173.027344 174.242188 173.042969 174.164062 Z M 171.910156 173.464844 Z M 170.976562 172.566406 C 170.761719 171.652344 170.621094 170.753906 170.558594 169.867188 C 170.316406 171.089844 170.152344 172.324219 170.140625 173.59375 C 170.214844 173.210938 170.535156 172.796875 170.976562 172.566406 Z M 190.761719 58.082031 C 194.511719 61.992188 197.992188 66.488281 198.589844 71.921875 C 200.082031 65.152344 202.367188 57.988281 199.292969 51.429688 C 199.0625 50.988281 199.855469 50.589844 200.085938 51.03125 C 203.386719 56.839844 202.09375 63.804688 200.738281 70.28125 C 201.132812 69.882812 201.542969 69.40625 201.957031 68.933594 C 203.660156 66.730469 204.445312 63.949219 206.074219 61.734375 C 206.085938 61.65625 206.027344 61.5625 206.042969 61.488281 C 207.003906 55.40625 203.859375 50.421875 202.773438 44.65625 C 202.011719 40.460938 201.679688 36.109375 202.03125 31.894531 C 197.234375 35.710938 194.34375 40.695312 192.757812 46.730469 C 191.960938 49.984375 192.125 54.777344 190.761719 58.082031 Z M 242.339844 98.398438 C 241.863281 97.585938 241.648438 96.671875 241.90625 95.773438 C 242.054688 95.40625 242.285156 95.054688 242.621094 94.957031 C 242.421875 94.761719 242.3125 94.5 242.542969 94.148438 C 242.648438 94.011719 242.679688 93.859375 242.785156 93.722656 C 241.996094 94.519531 241.066406 95.210938 240.242188 95.761719 C 239.222656 96.511719 238.199219 97.261719 237.207031 97.859375 C 238.996094 97.65625 240.886719 97.714844 242.339844 98.398438 Z M 258.5 93.328125 C 258.421875 93.3125 258.34375 93.296875 258.34375 93.296875 C 258.972656 93.738281 259.601562 94.179688 260.121094 94.757812 C 260.625 94.222656 261.203125 94.097656 261.890625 94.234375 C 262.320312 94.078125 262.746094 93.929688 263.160156 93.847656 C 261.523438 93.6875 260.042969 93.554688 258.5 93.328125 Z M 260.144531 97.855469 C 259.792969 97.628906 259.425781 97.476562 259.132812 97.34375 C 260.621094 99.0625 261.832031 100.96875 262.648438 102.871094 C 261.957031 101.148438 261.09375 99.472656 260.144531 97.855469 Z M 263.742188 105.789062 C 263.636719 105.527344 263.539062 105.191406 263.433594 104.933594 C 263.496094 105.023438 263.480469 105.101562 263.523438 105.269531 C 263.558594 105.511719 263.605469 105.679688 263.480469 105.894531 C 263.574219 105.832031 263.664062 105.773438 263.742188 105.789062 Z M 75.464844 107.089844 C 76.550781 106.828125 77.347656 107.222656 78.066406 107.996094 C 78.707031 108.761719 79 109.691406 80.148438 109.917969 C 81.0625 110.097656 81.949219 109.636719 82.894531 109.664062 C 83.539062 109.632812 83.984375 110.59375 83.359375 110.945312 C 83.265625 111.007812 83.191406 110.992188 83.097656 111.054688 C 81.78125 115.316406 82.464844 118.707031 84.371094 122.730469 C 86.519531 127.121094 89.851562 128.332031 94.207031 128.394531 C 92.335938 126.203125 90.910156 123.777344 90.015625 121.0625 C 89.875 120.5625 90.5625 120.300781 90.777344 120.816406 C 91.914062 123.503906 93.511719 125.878906 95.472656 128.011719 C 95.609375 128.117188 95.65625 128.285156 95.640625 128.363281 C 96.265625 128.40625 96.527344 129.09375 96.210938 129.507812 C 99.488281 133.007812 104.714844 134.277344 108.839844 136.28125 C 113.742188 135.183594 118.699219 133.78125 123.566406 132.039062 C 122.109375 129.769531 120.957031 127.160156 120.089844 124.292969 C 119.941406 123.867188 120.609375 123.679688 120.765625 124.109375 C 121.691406 127.066406 122.933594 129.617188 124.496094 131.75 C 124.496094 131.75 124.496094 131.75 124.570312 131.765625 C 125.597656 131.410156 126.164062 132.550781 125.707031 133.253906 C 127.257812 135.070312 129.109375 136.542969 131.003906 137.792969 C 131.738281 137.300781 132.851562 138.074219 132.855469 138.871094 C 140.320312 142.878906 149.746094 144.183594 158.300781 145.867188 C 158.484375 145.347656 158.835938 144.78125 159.214844 144.460938 C 159.308594 144.398438 159.488281 144.277344 159.582031 144.21875 C 156.949219 143.0625 154.714844 141.113281 153.015625 138.875 C 152.707031 138.417969 153.347656 137.988281 153.746094 138.382812 C 155.949219 140.882812 158.523438 142.339844 161.472656 143.476562 C 161.640625 143.433594 161.792969 143.460938 161.882812 143.402344 C 162.464844 143.277344 163.089844 143.320312 163.683594 143.121094 C 163.636719 142.953125 163.683594 142.722656 163.714844 142.570312 C 157.261719 139.472656 152.507812 131.792969 150.714844 125.171875 C 150.558594 124.746094 151.246094 124.484375 151.402344 124.910156 C 152.679688 128.492188 154.535156 131.953125 156.972656 134.894531 C 159.089844 137.453125 161.609375 139.140625 164.183594 140.996094 C 164.457031 140.417969 164.792969 139.925781 165.1875 139.527344 C 162.078125 137.171875 160.921875 132.183594 160.164062 128.777344 C 160.085938 128.367188 160.695312 128.089844 160.847656 128.515625 C 161.496094 130.867188 162.117188 133.371094 163.371094 135.441406 C 164.140625 136.785156 165.152344 137.695312 166.328125 138.5625 C 166.769531 138.332031 167.199219 138.179688 167.6875 138.117188 C 165.050781 134.1875 163.84375 129.820312 164.074219 125.027344 C 164.421875 117.636719 167.691406 108.285156 160.011719 103.359375 C 159.660156 103.128906 159.933594 102.550781 160.285156 102.777344 C 164.351562 105.085938 165.832031 109.265625 166.042969 113.828125 C 166.421875 122.789062 163.679688 130.265625 169.277344 138.113281 C 169.976562 138.171875 170.589844 138.289062 171.246094 138.582031 C 171.761719 137.96875 172.433594 137.386719 173.164062 136.894531 C 173.726562 118.757812 178.867188 95.488281 157.308594 87.667969 C 156.714844 87.472656 156.5 86.953125 156.527344 86.40625 C 156.316406 86.679688 155.949219 86.925781 155.503906 86.757812 C 155.351562 86.726562 155.277344 86.714844 155.125 86.683594 C 155.1875 86.777344 155.230469 86.941406 155.277344 87.109375 C 155.5625 90.5 153.433594 92.855469 150.640625 94.527344 C 148.75 95.664062 146.539062 96.417969 144.753906 97.8125 C 141.265625 100.617188 141.457031 103.667969 140.25 107.398438 C 139.339844 110.394531 137.617188 111.878906 134.796875 112.910156 C 134.949219 113.335938 135.105469 113.765625 135.257812 114.191406 C 135.582031 114.96875 135.980469 115.761719 136.472656 116.492188 C 136.78125 116.949219 136.046875 117.441406 135.742188 116.984375 C 135.171875 116.234375 134.683594 115.507812 134.28125 114.710938 C 134.050781 114.269531 133.824219 113.828125 133.757812 113.339844 C 133.425781 113.433594 133.164062 113.539062 132.828125 113.632812 C 133.335938 115.476562 133.863281 117.25 134.859375 119.03125 C 136.058594 121.011719 137.449219 122.796875 138.921875 124.59375 C 139.246094 124.972656 138.574219 125.558594 138.253906 125.175781 C 135.496094 122.25 131.984375 118.308594 131.46875 114.082031 C 126.953125 115.648438 123.601562 117.367188 121.585938 122.761719 C 121.417969 123.207031 120.761719 122.917969 120.835938 122.535156 C 121.621094 119.359375 123.277344 116.589844 125.957031 114.660156 C 127.621094 113.480469 129.574219 112.832031 131.433594 112.246094 C 131.574219 111.957031 131.90625 111.863281 132.199219 112 C 134.242188 111.292969 136.105469 110.308594 137.289062 108.320312 C 139.539062 104.5625 139.113281 100.269531 142.449219 97.039062 C 146.195312 93.335938 152.453125 92.980469 153.703125 87.039062 C 153.75 86.808594 153.871094 86.59375 154.054688 86.472656 C 149.179688 85.832031 144.683594 87.722656 140.226562 89.78125 C 136.125 91.667969 131.488281 93.851562 128.046875 96.820312 C 124.222656 100.113281 125.285156 103.972656 123.835938 108.132812 C 123.335938 109.460938 122.832031 109.996094 122.210938 111.140625 C 121.007812 112.414062 119.984375 113.957031 119.410156 115.671875 C 119.339844 117.640625 119.59375 119.59375 120.097656 121.4375 C 120.285156 122.109375 119.355469 122.40625 119.078125 121.792969 C 117.21875 117.539062 116.980469 114.714844 119.65625 110.796875 C 123.277344 105.722656 121.289062 99.296875 126.347656 94.980469 C 130.550781 91.363281 136.207031 88.828125 141.242188 86.648438 C 146.199219 84.449219 151.140625 82.726562 156.402344 84.636719 C 156.84375 84.800781 157.011719 85.152344 157.03125 85.472656 C 157.351562 85.0625 157.808594 84.753906 158.402344 84.949219 C 167.449219 87.367188 174.085938 94.785156 176.019531 103.894531 C 176.003906 103.972656 176.0625 104.058594 176.035156 104.214844 C 177.046875 100.285156 178.714844 96.25 181.070312 92.746094 C 161.757812 79.183594 162.71875 52.15625 174.839844 34.15625 C 175.054688 33.878906 175.328125 33.691406 175.648438 33.679688 C 175.664062 33.601562 175.601562 33.511719 175.617188 33.433594 C 175.582031 31.996094 177.84375 31.808594 177.878906 33.242188 C 178.074219 38.679688 178.484375 43.441406 181.691406 48.121094 C 183.976562 51.429688 187.082031 54.183594 189.933594 57.042969 C 189.796875 46.460938 193.292969 35.570312 202.238281 29.238281 C 203.335938 28.5 204.441406 30.148438 203.402344 30.972656 C 202.933594 37.785156 203.945312 43.539062 206.40625 49.972656 C 207.605469 53.144531 208.820312 56.242188 208.433594 59.421875 C 209.851562 58.273438 211.511719 57.488281 213.097656 56.6875 C 214.152344 56.183594 215.058594 58.027344 214.003906 58.535156 C 211.503906 59.945312 209.355469 61.1875 207.710938 63.480469 C 211.582031 65.199219 214.992188 67.617188 217.949219 70.738281 C 218.347656 71.132812 217.816406 71.820312 217.339844 71.410156 C 214.140625 68.714844 210.699219 66.449219 206.890625 64.828125 C 206.144531 66.1875 205.554688 67.582031 204.671875 68.835938 C 203.6875 70.226562 202.480469 71.101562 201.429688 72.402344 C 201.035156 72.800781 200.789062 73.226562 200.472656 73.640625 C 201.480469 74.15625 202.460938 74.828125 203.472656 75.339844 C 205.125 76.226562 206.800781 76.953125 208.484375 77.679688 C 208.988281 77.9375 208.671875 78.746094 208.136719 78.640625 C 205.402344 78.023438 202.195312 76.996094 199.835938 75.261719 C 199.746094 75.324219 199.730469 75.398438 199.636719 75.460938 C 198.847656 77.445312 198.746094 79.570312 198.589844 81.996094 C 198.558594 82.945312 197.1875 83.070312 197.136719 82.109375 C 197.023438 79.863281 196.925781 77.546875 197.589844 75.371094 C 197.664062 74.992188 197.804688 74.703125 197.957031 74.335938 C 196.492188 64.445312 188.167969 59.15625 182.101562 52.085938 C 178.101562 47.410156 176.285156 42.53125 175.839844 36.730469 C 164.929688 54.652344 165.710938 77.265625 182.105469 91.527344 C 184.78125 88.003906 188.273438 85.203125 192.410156 83.953125 C 192.101562 77.863281 189.386719 73.917969 184.882812 69.777344 C 181.59375 66.746094 179.414062 63.300781 177.859375 59.109375 C 177.660156 58.515625 178.515625 58.207031 178.714844 58.800781 C 180.101562 62.246094 182.292969 65.21875 185.0625 67.667969 C 186.761719 69.113281 188.597656 70.269531 190.007812 71.976562 C 192.78125 75.21875 194.289062 79.246094 194.332031 83.460938 C 195.308594 83.335938 196.285156 83.210938 197.308594 83.253906 C 197.78125 83.269531 197.816406 83.910156 197.402344 83.988281 C 196.242188 84.230469 195.160156 84.496094 194.136719 84.847656 C 193.921875 85.125 193.574219 85.292969 193.25 85.308594 C 193.234375 85.386719 193.234375 85.386719 193.222656 85.460938 C 191.160156 90.691406 189.710938 96.039062 189.328125 101.597656 C 189.316406 102.070312 188.535156 101.996094 188.550781 101.523438 C 188.824219 96.101562 189.679688 90.953125 191.558594 85.851562 C 183.066406 90.285156 180.390625 99.835938 177.269531 109.21875 C 177.210938 109.523438 177.011719 109.722656 176.832031 109.847656 C 177.632812 118.253906 176.667969 127.585938 175.238281 135.636719 C 175.578125 135.542969 175.832031 135.4375 176.171875 135.347656 C 177.652344 135.082031 179.027344 135.75 180.28125 136.628906 C 188.414062 134.425781 196.96875 124.046875 199.34375 116.425781 C 199.492188 116.058594 200.105469 116.175781 199.957031 116.542969 C 198.382812 122.109375 194.925781 126.347656 191.167969 130.523438 C 188.414062 133.632812 185.472656 136.464844 181.582031 137.679688 C 181.582031 137.679688 181.582031 137.679688 181.660156 137.695312 C 187.535156 136.871094 192.460938 134.035156 197.445312 130.886719 C 202.335938 127.804688 210.296875 123.664062 211.992188 117.886719 C 212.070312 117.503906 212.675781 117.621094 212.601562 118.003906 C 211.0625 123.8125 204.261719 127.707031 199.644531 131.003906 C 195.941406 133.6875 191.71875 136.585938 187.28125 138.171875 C 187.984375 138.625 188.535156 139.445312 188.765625 140.285156 C 188.800781 140.53125 188.832031 140.777344 188.859375 141.019531 C 189.058594 140.820312 189.332031 140.636719 189.640625 140.695312 C 198.222656 141.039062 206.011719 140.988281 214.558594 139.894531 C 220.910156 139.082031 226.4375 139.617188 231.824219 143.296875 C 234.335938 145.0625 236.691406 147.191406 238.609375 149.554688 C 256.695312 141.136719 252.640625 116.613281 251.160156 100.371094 C 251.003906 100.34375 250.914062 100.402344 250.761719 100.371094 C 249.40625 101.613281 247.417969 101.621094 245.738281 100.890625 C 245.296875 100.722656 244.804688 100.390625 244.316406 100.054688 C 242.125 103.511719 241.515625 108.625 240.609375 112.414062 C 240.503906 112.953125 239.589844 112.773438 239.695312 112.234375 C 240.445312 108.8125 240.820312 105.316406 241.710938 102 C 242.011719 100.871094 242.390625 99.753906 243.105469 98.945312 C 242.980469 98.761719 242.84375 98.652344 242.722656 98.472656 C 242.738281 98.792969 242.601562 99.082031 242.34375 99.191406 C 240.328125 100.140625 237.640625 99.691406 235.457031 99.894531 C 232.710938 100.148438 230.421875 100.886719 227.964844 102.070312 C 228.203125 104.496094 228.101562 107.015625 227.804688 109.734375 C 227.757812 109.964844 227.363281 109.964844 227.328125 109.722656 C 227.195312 105.171875 226.804688 101.128906 225.128906 97.542969 C 225.351562 100.445312 223.4375 104.113281 222.222656 106.253906 C 221.960938 106.757812 221.242188 106.378906 221.503906 105.875 C 222.640625 103.320312 225.039062 98.796875 223.613281 95.972656 C 223.425781 95.703125 223.566406 95.410156 223.835938 95.222656 C 222.734375 93.582031 221.277344 92.105469 219.320312 90.765625 C 213.257812 86.476562 206.320312 84.632812 199.050781 84.074219 C 198.578125 84.058594 198.652344 83.28125 199.125 83.292969 C 207.355469 83.011719 215.777344 85.78125 222.191406 91.09375 C 225.46875 93.800781 227.140625 96.988281 227.792969 100.527344 C 228.917969 99.636719 230.15625 99.011719 231.511719 98.5625 C 231.558594 98.332031 231.679688 98.121094 232.015625 98.027344 C 236.121094 96.535156 239.804688 93.136719 242.332031 89.585938 C 241.324219 89.863281 240.316406 90.140625 239.25 90.722656 C 238.363281 91.183594 237.632812 91.675781 236.746094 92.136719 C 234.8125 93.105469 232.917969 93.445312 230.855469 92.640625 C 230.488281 92.492188 230.761719 91.910156 231.128906 92.0625 C 235.132812 93.484375 237.902344 89.109375 241.382812 88.367188 C 238.183594 86.867188 229.625 89.222656 226.90625 88.925781 C 223.160156 88.585938 219.8125 87.453125 216.511719 85.6875 C 216.160156 85.460938 216.433594 84.878906 216.785156 85.105469 C 224.046875 88.523438 229.894531 87.851562 237.480469 86.40625 C 239.617188 86.035156 241.285156 86.046875 242.601562 87.417969 C 242.617188 87.34375 242.554688 87.25 242.566406 87.175781 C 242.535156 86.929688 242.660156 86.714844 242.78125 86.5 C 242.089844 85.570312 241.75 84.472656 241.976562 83.328125 C 240.351562 81.101562 235.3125 81.695312 233.003906 80.527344 C 230.984375 79.496094 229.425781 77.757812 228.378906 75.808594 C 228.148438 75.367188 228.789062 74.9375 229.019531 75.378906 C 230.386719 77.710938 232.421875 79.460938 235.15625 80.078125 C 237.050781 80.53125 239.109375 80.144531 240.886719 80.8125 C 241.558594 81.023438 242.1875 81.464844 242.660156 81.875 C 243.011719 81.3125 243.5 80.847656 244.015625 80.632812 C 240.355469 77.054688 237.886719 73.078125 235.367188 68.535156 C 233.789062 65.683594 232.144531 62.742188 229.621094 60.65625 C 226.417969 57.964844 223.257812 57.898438 219.332031 58.074219 C 218.539062 58.078125 218.324219 57.164062 218.886719 56.71875 C 223.242188 53.132812 229.609375 56.6875 232.886719 60.191406 C 236.546875 64.167969 238.757812 69.046875 241.582031 73.648438 C 237.414062 62.988281 231.875 49.597656 242.148438 41.386719 C 243 40.679688 243.882812 40.222656 244.875 39.625 C 248.089844 37.796875 248.855469 37.550781 251.394531 34.324219 C 252.964844 32.410156 254.40625 30.710938 256.558594 29.464844 C 257 29.238281 257.441406 29.007812 257.886719 28.777344 C 257.902344 28.703125 257.914062 28.625 257.914062 28.625 C 258.09375 28.105469 258.570312 28.117188 258.921875 28.34375 C 262.765625 26.960938 266.953125 27.074219 270.636719 28.910156 C 271.28125 29.273438 270.792969 30.128906 270.121094 29.917969 C 266.253906 28.601562 262.34375 28.703125 258.894531 30.089844 C 257.292969 34.609375 256.308594 39.179688 256.3125 44.019531 C 256.296875 44.492188 255.5625 44.585938 255.503906 44.097656 C 255.351562 39.625 255.886719 35.285156 257.125 31.007812 C 255.40625 32.097656 253.851562 33.535156 252.542969 35.34375 C 250.09375 38.90625 247.808594 39.644531 244.316406 42.050781 C 232.136719 50.285156 241.410156 66.871094 245.136719 77.367188 C 245.289062 77.792969 245.136719 78.160156 244.847656 78.417969 C 245.171875 78.796875 245.570312 79.195312 245.964844 79.589844 C 246.730469 79.34375 247.507812 79.421875 248.347656 79.585938 C 248.730469 79.660156 249.390625 79.949219 249.722656 79.855469 C 250.152344 79.703125 250.316406 78.859375 250.621094 78.523438 C 250.820312 78.324219 251.015625 78.128906 251.214844 77.929688 C 250.441406 73.808594 251.039062 69.5625 252.140625 65.574219 C 252.230469 65.113281 252.996094 65.265625 252.90625 65.722656 C 251.984375 69.589844 252.105469 73.421875 252.285156 77.34375 C 253.210938 77.050781 254.144531 77.15625 255.03125 77.488281 C 255.785156 74.464844 255.839844 71.378906 256.824219 68.398438 C 257.988281 64.898438 259.460938 61.460938 260.777344 57.992188 C 260.929688 57.625 261.511719 57.898438 261.359375 58.265625 C 260.027344 62.207031 258.328125 66.394531 257.363281 70.488281 C 256.773438 73.074219 256.816406 75.699219 256.089844 78.171875 C 256.289062 78.371094 256.425781 78.476562 256.546875 78.660156 C 256.925781 78.335938 257.367188 78.109375 257.921875 78.136719 C 258.167969 74.457031 260.117188 71.03125 262.320312 67.894531 C 267.71875 60.230469 273.667969 52.597656 272.066406 42.601562 C 271.988281 42.191406 272.628906 42.15625 272.632812 42.550781 C 273.808594 49.054688 271.886719 55.183594 268.621094 60.886719 C 265.125 66.941406 260.023438 71.886719 259.554688 78.699219 C 260.046875 79.03125 260.429688 79.503906 260.738281 79.960938 C 261.851562 81.53125 262.0625 84.902344 259.484375 85.113281 C 258.597656 85.175781 258.058594 84.277344 258.378906 83.464844 C 258.5 83.25 258.605469 83.113281 258.636719 82.960938 C 258.578125 82.867188 258.578125 82.867188 258.511719 82.777344 C 258.265625 82.015625 258.082031 81.34375 257.988281 80.609375 C 257.789062 80.414062 257.574219 80.289062 257.484375 80.355469 C 257.621094 80.855469 257.671875 81.421875 257.566406 81.957031 C 257.386719 82.871094 256.054688 83.164062 255.578125 82.359375 C 255.351562 81.917969 255.074219 81.308594 254.855469 80.789062 C 254.414062 81.015625 253.851562 80.667969 254.125 80.089844 C 254.140625 80.011719 254.140625 80.011719 254.152344 79.9375 C 253.863281 79.796875 253.636719 79.753906 253.207031 79.90625 C 252.355469 80.214844 252.140625 81.285156 251.332031 81.761719 C 250.617188 82.175781 249.804688 82.253906 248.96875 82.089844 C 248.277344 81.953125 246.839844 81.191406 246.324219 81.800781 C 246.023438 82.140625 245.699219 82.15625 245.378906 82.175781 C 245.089844 82.433594 244.726562 82.675781 244.40625 83.09375 C 243.84375 83.933594 243.875 84.972656 244.519531 85.734375 C 244.578125 85.824219 244.5625 85.902344 244.625 85.992188 C 245.726562 86.84375 246.070312 88.734375 246.058594 90.003906 C 245.96875 91.652344 245.210938 93.089844 243.960938 94.195312 L 243.871094 94.253906 C 243.949219 94.269531 244.011719 94.363281 244.011719 94.363281 C 244.941406 95.257812 245.160156 96.570312 246.15625 97.5625 C 246.753906 98.152344 247.929688 99.019531 248.941406 99.140625 C 249.242188 98.011719 250.769531 97.914062 251.835938 98.125 C 252.601562 98.277344 253.183594 98.550781 253.808594 97.796875 C 254.21875 97.324219 254.417969 96.726562 254.75 96.238281 C 252.835938 95.070312 250.757812 94.34375 248.753906 93.230469 C 247.898438 92.746094 248.003906 91.816406 248.503906 91.28125 C 247.191406 90.703125 247.320312 88.824219 248.878906 88.578125 C 249.292969 88.5 249.761719 88.511719 250.175781 88.433594 C 251.988281 87.28125 254.542969 87.230469 256.617188 86.769531 C 258.769531 86.320312 260.949219 85.71875 263.117188 85.191406 C 263.007812 84.933594 262.996094 84.613281 263.265625 84.429688 C 263.832031 83.984375 264.410156 83.464844 264.988281 82.941406 C 267.925781 74.875 274.117188 70.457031 281.523438 65.890625 C 282.070312 65.519531 282.6875 66.433594 282.078125 66.710938 C 278.542969 68.949219 274.972656 71.34375 272.019531 74.25 C 270.132812 76.179688 268.839844 78.304688 267.671875 80.617188 C 271.070312 77.875 274.894531 75.371094 279.042969 74.84375 C 282.785156 74.390625 286.746094 75.648438 290.398438 76.445312 C 294.8125 77.394531 299.242188 78.269531 303.566406 79.277344 C 304.179688 79.398438 304 80.3125 303.386719 80.195312 C 296.191406 78.855469 288.230469 76.175781 280.882812 76.394531 C 275.140625 76.535156 271.484375 80.175781 267.234375 83.226562 C 267.386719 83.257812 267.617188 83.300781 267.753906 83.410156 C 268.230469 83.820312 268.644531 84.140625 269.132812 84.476562 C 273.027344 80.402344 279.640625 80.277344 284.824219 81.375 C 285.433594 81.496094 285.253906 82.414062 284.640625 82.292969 C 279.429688 81.347656 274.363281 82.09375 270.3125 85.339844 C 271.273438 86.085938 272.175781 86.738281 273.171875 87.332031 C 273.414062 87.300781 273.644531 87.347656 273.9375 87.484375 C 283.277344 91.625 294.757812 94.601562 304.332031 89.503906 C 307.699219 87.710938 310.730469 85.210938 314.058594 83.25 C 318.738281 80.441406 323.875 78.121094 323.449219 72.640625 C 323.25 72.839844 322.761719 72.902344 322.515625 72.539062 C 319.542969 69.09375 313.890625 67.980469 309.765625 66.769531 C 306.308594 65.773438 302.765625 64.835938 299.25 64.144531 C 298.792969 64.054688 298.941406 63.289062 299.398438 63.378906 C 304.761719 64.355469 310.035156 65.394531 315.1875 67.046875 C 318.167969 68.03125 321.511719 68.769531 323.292969 71.421875 C 323.183594 70.765625 322.984375 70.167969 322.722656 69.484375 C 322.519531 68.886719 323.40625 68.425781 323.695312 68.960938 C 325.832031 72.636719 325.476562 76.851562 322.414062 79.898438 C 320.527344 81.828125 317.875 82.808594 315.632812 84.117188 C 312.765625 85.769531 310.203125 87.886719 307.460938 89.726562 C 302.875 92.867188 297.992188 94.289062 293.105469 94.515625 C 294.652344 95.136719 296.089844 95.894531 297.527344 97.050781 C 301.105469 99.820312 304.707031 103.304688 306.304688 107.667969 C 307.597656 111.175781 307.445312 114.796875 306.964844 118.429688 C 307.164062 118.628906 307.300781 118.734375 307.5 118.933594 C 308.097656 119.527344 307.367188 120.414062 306.726562 120.050781 C 306.589844 120.738281 306.546875 121.363281 306.410156 122.050781 C 306.261719 122.8125 305.203125 122.527344 305.265625 121.824219 C 305.367188 120.894531 305.488281 119.882812 305.515625 118.9375 C 302.359375 116.015625 299.207031 113.09375 295.625 110.722656 C 295.351562 110.507812 295.6875 110.019531 295.976562 110.15625 C 299.359375 112.328125 302.570312 114.546875 305.558594 117.121094 C 305.632812 111.503906 304.410156 106.421875 299.785156 102.097656 C 295.4375 97.988281 291.003906 96.324219 285.289062 95.117188 C 279.359375 93.789062 271.566406 91.855469 267.578125 86.707031 C 267.429688 87.074219 267.140625 87.332031 266.804688 87.425781 C 265.8125 87.625 264.757812 87.339844 264.207031 86.515625 C 262.054688 87.363281 259.84375 88.117188 257.644531 88.792969 C 261.175781 89.414062 264.628906 90.410156 267.410156 91.59375 C 268.171875 90.949219 269.441406 90.960938 270.039062 91.953125 C 270.210938 92.300781 270.300781 92.640625 270.316406 92.957031 C 270.363281 93.125 270.347656 93.203125 270.316406 93.355469 C 270.320312 93.753906 270.089844 94.105469 269.804688 94.363281 C 273.992188 96.460938 278.292969 100.003906 282.402344 99.703125 C 282.964844 99.65625 283.03125 100.542969 282.464844 100.589844 C 275.640625 100.992188 270.566406 94.910156 264.167969 94.761719 C 264.902344 95.460938 265.472656 96.210938 265.898438 96.847656 C 266.144531 97.214844 266.390625 97.582031 266.636719 97.945312 C 267.246094 97.667969 267.871094 97.714844 268.421875 98.140625 C 269.234375 98.855469 269.222656 100.125 268.523438 100.855469 C 268.429688 100.917969 268.339844 100.980469 268.25 101.039062 C 270.492188 105.769531 272.351562 110.816406 277.628906 113.046875 C 278.070312 113.214844 277.785156 113.871094 277.265625 113.6875 C 273.71875 112.355469 271.40625 109.996094 269.503906 106.765625 C 269.027344 105.953125 267.996094 103.53125 266.71875 101.136719 C 266.644531 101.121094 266.644531 101.121094 266.566406 101.105469 C 266.125 100.941406 265.742188 100.46875 265.664062 100.058594 C 265.496094 100.101562 265.269531 100.058594 265.128906 99.953125 C 264.5625 99.601562 264.074219 99.265625 263.507812 98.917969 C 264.875 102.042969 265.695312 105.539062 266.679688 108.589844 C 269.960938 118.914062 277.558594 126.679688 287.96875 129.84375 C 288.640625 130.054688 288.445312 131.046875 287.757812 130.914062 C 280.089844 128.765625 273.382812 124.113281 268.996094 117.378906 C 267.171875 114.554688 266.019531 111.550781 264.941406 108.5625 C 264.832031 108.699219 264.730469 108.835938 264.5625 108.882812 C 264.179688 109.207031 263.707031 109.191406 263.277344 108.949219 C 262.070312 109.027344 261.105469 107.886719 261.4375 106.601562 C 261.542969 106.066406 261.953125 105.59375 262.394531 105.363281 C 262.09375 105.304688 261.878906 105.179688 261.707031 104.832031 C 260.386719 101.871094 258.699219 99.160156 256.160156 97.152344 C 256.082031 97.136719 256.097656 97.058594 256.019531 97.042969 C 255.488281 98.128906 254.332031 99.171875 253.308594 99.527344 C 253.230469 99.511719 253.21875 99.589844 253.140625 99.574219 C 254.371094 102.988281 255.042969 106.851562 255.28125 110.863281 C 258.195312 115.804688 259.769531 121.507812 262.839844 126.480469 C 265.96875 131.535156 270.164062 136.015625 275.519531 138.65625 C 281.515625 141.664062 286.351562 140.472656 292.609375 140.117188 C 295.816406 139.957031 299.621094 140.789062 302.441406 138.566406 C 305.550781 136.085938 304.644531 130.191406 304.589844 126.847656 C 304.621094 125.902344 305.902344 125.839844 306.042969 126.738281 C 306.988281 132.003906 306.628906 139.074219 301.230469 141.898438 C 297.964844 143.554688 294.070312 142.390625 290.558594 142.886719 C 287.214844 143.34375 284.191406 143.777344 280.832031 143.117188 C 268.898438 140.84375 259.425781 129.296875 255.300781 117.613281 C 255.117188 122.578125 254.378906 127.507812 253.460938 131.773438 C 251.789062 139.453125 247.339844 147.941406 239.328125 150.332031 C 243.929688 156.789062 246 164.816406 243.101562 172.65625 C 243.410156 173.113281 243.105469 173.847656 242.40625 173.789062 L 242.328125 173.773438 C 242.253906 173.757812 242.097656 173.726562 242.023438 173.714844 C 238.816406 173.082031 235.894531 171.789062 233.292969 169.691406 C 232.878906 169.371094 233.378906 168.835938 233.792969 169.15625 C 236.242188 170.828125 238.964844 171.921875 241.882812 172.414062 C 245.191406 159.660156 236.960938 145.417969 223.882812 142.128906 C 217.753906 140.605469 211.132812 142.789062 205.011719 143.25 C 199.773438 143.644531 194.214844 143.664062 189.125 142.5 C 188.742188 142.425781 188.546875 142.226562 188.359375 141.953125 C 188.132812 143.101562 187.601562 144.183594 186.871094 145.070312 C 187.300781 145.316406 187.714844 145.632812 187.945312 146.074219 C 188.296875 146.703125 188.484375 147.371094 188.421875 148.074219 C 192.332031 147.972656 195.976562 146.390625 199.886719 146.683594 C 202.867188 146.875 205.496094 148.027344 207.839844 149.835938 C 208.25 150.15625 207.796875 150.859375 207.367188 150.617188 C 202.703125 147.714844 198.714844 147.800781 193.480469 148.992188 C 191.574219 149.410156 189.835938 149.78125 188.0625 149.511719 C 188.03125 149.664062 187.9375 149.726562 187.910156 149.878906 C 187.804688 150.015625 187.695312 150.15625 187.589844 150.292969 C 195.609375 155.519531 204.355469 154.230469 213.277344 156.464844 C 218.871094 157.882812 225.414062 160.125 228.511719 165.339844 C 228.820312 165.796875 228.089844 166.285156 227.78125 165.828125 C 222.722656 158.085938 211.15625 156.761719 202.707031 156.125 C 197.699219 155.773438 192.292969 155.425781 188.191406 152.472656 C 190.96875 156.113281 194.003906 160.839844 198.703125 160.335938 C 199.195312 160.273438 199.210938 160.992188 198.722656 161.054688 C 193.257812 161.800781 188.980469 155.722656 185.929688 151.867188 C 185.65625 152.050781 185.304688 152.222656 185.03125 152.40625 C 185.472656 152.96875 185.796875 153.746094 186.058594 154.429688 C 187.027344 156.765625 187.90625 159.160156 190.277344 160.421875 C 190.78125 160.679688 190.414062 161.320312 189.898438 161.140625 C 188.261719 160.582031 187.082031 159.316406 186.269531 157.808594 C 185.453125 156.296875 184.957031 153.980469 183.503906 152.898438 C 183.089844 152.976562 182.695312 152.976562 182.375 152.992188 C 187.90625 164.792969 193.578125 177.496094 203.957031 185.652344 C 204.109375 185.683594 204.246094 185.785156 204.367188 185.972656 C 205.824219 187.050781 207.292969 188.054688 208.851562 188.996094 C 212.140625 190.835938 215.183594 191.910156 218.097656 192.011719 C 213.832031 189.5 210.082031 186.382812 206.757812 182.710938 C 206.496094 182.425781 206.894531 182.023438 207.152344 182.316406 C 211.132812 186.273438 215.679688 189.390625 220.664062 191.878906 C 221.65625 191.679688 222.664062 191.398438 223.625 190.957031 C 221.667969 190.410156 219.816406 188.9375 218.390625 187.703125 C 218.054688 187.398438 218.449219 187 218.800781 187.230469 C 219.769531 187.976562 220.824219 188.65625 221.910156 189.191406 C 222.859375 189.617188 223.925781 189.828125 224.875 190.25 C 226.398438 189.359375 227.847656 188.058594 229.214844 186.34375 C 231.921875 183.070312 234.277344 179.171875 238.230469 177.25 C 238.765625 176.957031 238.996094 177.796875 238.617188 178.121094 C 233.574219 182.363281 230.566406 188.753906 225.21875 192.539062 C 219.976562 196.1875 213.660156 194.390625 208.398438 191.6875 C 207.527344 191.273438 206.671875 190.789062 205.832031 190.226562 C 207.605469 196.132812 207.847656 201.734375 206.738281 208.179688 C 205.296875 216.703125 204.285156 225.472656 202.308594 233.886719 C 202.355469 234.453125 202.386719 235.09375 202.421875 235.734375 C 202.421875 236.527344 201.199219 236.683594 201.136719 235.796875 C 201.09375 235.632812 201.058594 235.386719 201.089844 235.234375 C 201.027344 235.144531 200.984375 234.972656 200.933594 234.808594 C 200.949219 234.734375 200.964844 234.65625 200.980469 234.578125 C 199.320312 225.683594 188.503906 219.347656 187.855469 210.171875 C 186.492188 215.457031 184.265625 220.734375 179.796875 224.054688 C 173.492188 228.6875 167.191406 225.222656 160.351562 227.289062 C 159.757812 227.484375 159.390625 226.542969 159.984375 226.339844 C 165.828125 224.078125 172.097656 227.296875 177.597656 223.542969 C 183.742188 219.359375 185.855469 211.445312 186.84375 204.417969 C 188.773438 190.59375 184.511719 179.203125 178.582031 167.003906 C 178.027344 165.785156 179.828125 165.105469 180.59375 166.050781 C 188.761719 176.550781 190.855469 192.511719 188.773438 205.511719 C 189.105469 205.421875 189.566406 205.511719 189.644531 205.921875 C 191.15625 212.726562 192.824219 217.976562 197.023438 223.644531 C 198.652344 225.867188 200.351562 228.105469 201.378906 230.53125 C 202.144531 224.253906 203.46875 217.929688 204.382812 211.683594 C 205.074219 207.375 205.929688 203.019531 205.441406 198.640625 C 205.113281 195.085938 203.878906 191.667969 202.816406 188.203125 C 199.085938 185.40625 195.851562 182.070312 193.015625 178.339844 C 196.972656 189.671875 199.632812 201.542969 200.445312 213.128906 C 200.492188 213.691406 199.683594 213.773438 199.5625 213.191406 C 198.445312 202.734375 195.894531 192.710938 192.449219 182.828125 C 190.816406 178.222656 188.9375 173.644531 186.972656 169.132812 C 184.730469 165.199219 182.84375 161.101562 181.027344 157.011719 C 180.796875 156.964844 180.570312 156.921875 180.367188 156.722656 C 180.292969 156.707031 180.308594 156.632812 180.246094 156.539062 L 180.171875 156.527344 C 179.957031 156.402344 179.679688 156.191406 179.574219 155.929688 C 179.4375 155.824219 179.296875 155.71875 179.25 155.550781 C 178.511719 154.058594 177.699219 152.546875 176.949219 151.128906 C 176.933594 152 176.925781 152.871094 177.125 153.859375 C 177.636719 156.105469 178.648438 158.210938 179.691406 160.160156 C 180.425781 160.066406 181.21875 160.460938 181.636719 161.179688 C 182.292969 162.257812 181.839844 163.757812 180.574219 164.144531 C 179.214844 164.589844 177.960938 163.3125 178.21875 162.011719 C 178.246094 161.859375 178.261719 161.785156 178.371094 161.644531 C 177.066406 159.800781 175.4375 157.179688 174.53125 154.539062 C 174.183594 155.503906 173.910156 156.480469 173.636719 157.460938 C 172.898438 166.042969 180.324219 172.664062 179.570312 181.320312 C 179.542969 181.875 178.519531 181.828125 178.546875 181.28125 C 178.910156 175.003906 174.117188 169.136719 172.554688 162.960938 C 172.148438 165.816406 172.140625 168.671875 172.394531 171.417969 C 173.296875 171.675781 174.078125 172.542969 173.792969 173.597656 C 173.429688 175.035156 171.6875 175.800781 170.390625 175.148438 C 169.960938 174.90625 169.714844 174.539062 169.5625 174.113281 C 169.53125 174.265625 169.59375 174.359375 169.5625 174.511719 C 169.925781 179.5 173.496094 183.535156 174.628906 188.28125 C 176.496094 196.109375 174.765625 204.101562 172.113281 211.511719 C 171.914062 212.109375 171.058594 211.621094 171.238281 211.101562 C 173.117188 205.601562 174.570312 199.855469 174.292969 194.007812 C 174.109375 188.894531 172.21875 185.191406 170.007812 180.707031 C 167.472656 175.449219 167.898438 169.660156 169.761719 164.234375 C 169.925781 161.804688 170.3125 159.425781 170.808594 156.902344 C 170.855469 156.671875 170.882812 156.519531 170.929688 156.292969 C 169.820312 157.5 168.632812 158.695312 167.457031 159.8125 C 167.765625 159.875 167.933594 160.222656 167.796875 160.515625 C 166.324219 163.160156 164.726562 165.621094 164.886719 168.828125 C 164.972656 170.828125 165.785156 172.734375 166.113281 174.703125 C 166.609375 177.816406 166.296875 180.613281 164.949219 183.4375 C 164.671875 184.019531 163.894531 183.550781 164.074219 183.027344 C 166.332031 177.601562 163.636719 173.582031 163.484375 168.3125 C 163.402344 166.710938 163.765625 165.277344 164.433594 163.898438 C 164.203125 163.851562 164.050781 163.824219 163.835938 163.703125 C 162.839844 163.109375 162.667969 161.964844 163.019531 161 C 163.199219 160.480469 163.792969 160.28125 164.269531 160.292969 C 166.566406 157.097656 168.96875 154.160156 171.113281 150.933594 C 168.113281 153.277344 164.714844 155.226562 161.1875 156.199219 C 161.234375 156.363281 161.203125 156.515625 161.082031 156.730469 C 156.363281 162.148438 150.398438 165.023438 144.023438 167.96875 C 143.597656 168.125 143.320312 167.515625 143.6875 167.269531 C 146.445312 165.75 149.285156 164.246094 152.058594 162.648438 C 154.117188 161.46875 155.855469 159.90625 157.515625 158.328125 C 157.4375 158.3125 157.285156 158.28125 157.222656 158.195312 C 156.640625 157.921875 156.273438 157.371094 156.148438 156.792969 C 153.511719 157.699219 150.8125 158.515625 148.078125 159.484375 C 142.023438 161.625 136.941406 168.480469 129.988281 167.109375 C 129.609375 167.035156 129.726562 166.421875 130.109375 166.496094 C 135.410156 167.382812 138.320312 163.511719 142.21875 161.03125 C 144.398438 159.632812 146.824219 158.601562 149.296875 157.742188 C 151.765625 156.878906 154.160156 156.003906 156.574219 155.050781 C 156.863281 154.789062 157.210938 154.621094 157.609375 154.617188 L 157.6875 154.632812 C 161.316406 153.125 164.808594 151.515625 168.3125 149.429688 C 168.40625 149.367188 168.515625 149.230469 168.605469 149.167969 C 167.917969 149.429688 167.15625 149.675781 166.5625 149.875 C 164.867188 150.417969 163.277344 150.816406 161.585938 150.960938 C 161.890625 151.019531 162.257812 151.171875 162.566406 151.230469 C 163.234375 151.445312 163.101562 152.527344 162.339844 152.375 C 155.796875 150.929688 150.824219 153.203125 144.660156 154.289062 C 142.109375 154.738281 140.125 154.347656 138.164062 152.613281 C 137.828125 152.308594 138.3125 151.847656 138.574219 152.136719 C 142.601562 155.46875 148.253906 151.742188 152.542969 150.921875 C 153.855469 150.703125 155.09375 150.472656 156.378906 150.40625 C 156.328125 150.242188 156.28125 150.074219 156.3125 149.921875 C 156.292969 148.40625 157.925781 147.777344 159.011719 148.707031 C 159.285156 148.921875 159.382812 149.253906 159.398438 149.574219 C 160.480469 149.3125 161.65625 148.988281 162.753906 148.648438 C 162.113281 148.285156 161.484375 147.84375 161.023438 147.355469 C 160.875 147.722656 160.570312 148.058594 160.019531 148.03125 C 150 147.722656 139.519531 145.339844 131.46875 139.867188 C 129.640625 142.285156 127.113281 143.847656 124.414062 145.457031 C 119.046875 148.527344 116.109375 150.960938 115.148438 157.441406 C 114.578125 161.136719 113.917969 164.496094 110.960938 167.007812 C 109.332031 168.433594 107.332031 169.308594 105.535156 170.382812 C 108.589844 170.585938 111.476562 170.445312 114.496094 169.609375 C 114.925781 169.457031 115.1875 170.144531 114.757812 170.296875 C 111.359375 171.449219 107.523438 171.964844 103.996094 171.351562 C 102.53125 172.328125 101.265625 173.507812 100.449219 175.25 C 100.070312 175.96875 99.058594 175.453125 99.363281 174.722656 C 100.605469 171.238281 103.578125 169.839844 106.644531 167.980469 C 109.355469 166.292969 111.503906 164.65625 112.394531 161.339844 C 113.179688 158.558594 112.730469 155.613281 113.59375 152.847656 C 115.90625 145.132812 124.855469 144.039062 129.601562 138.46875 C 129.542969 138.375 129.464844 138.359375 129.390625 138.34375 C 129.1875 138.542969 128.855469 138.636719 128.550781 138.578125 C 119.304688 136.753906 112.507812 142.636719 106.863281 149.140625 C 101.003906 155.921875 97.273438 164.390625 98.976562 173.453125 C 99.085938 174.113281 98.09375 174.3125 97.890625 173.71875 C 94.839844 163.433594 99.273438 153.835938 106.183594 146.152344 C 111.449219 140.363281 118.550781 134.542969 126.644531 135.742188 C 125.851562 134.953125 125.144531 134.097656 124.457031 133.167969 C 115.5625 136.414062 106.238281 138.625 96.816406 139.703125 C 94.605469 140.855469 92.625 142.050781 91.121094 144.054688 C 89.613281 146.058594 88.902344 148.457031 86.984375 150.144531 C 86.496094 150.605469 85.824219 149.992188 86.234375 149.519531 C 88.058594 147.101562 88.953125 144.183594 90.976562 141.964844 C 91.585938 141.292969 92.269531 140.632812 93.015625 140.0625 C 83.261719 140.839844 73.332031 140.472656 63.644531 138.878906 C 63.113281 138.773438 63.339844 138.023438 63.796875 138.113281 C 71.023438 138.902344 78.109375 139.191406 85.242188 138.851562 C 81.15625 136.617188 77.160156 133.132812 75.453125 128.90625 C 75.46875 128.832031 75.390625 128.816406 75.40625 128.738281 C 74.539062 128.726562 73.757812 128.652344 73.085938 128.441406 C 69.890625 127.335938 66.902344 123.175781 66.265625 119.953125 C 66.15625 119.296875 67.160156 119.023438 67.453125 119.554688 C 68.667969 121.855469 70.082031 124.753906 72.148438 126.351562 C 72.898438 126.976562 73.875 127.246094 74.824219 127.277344 L 74.761719 127.183594 C 73.085938 124.394531 73.65625 120.300781 74.414062 117.277344 C 74.519531 116.742188 75.355469 116.910156 75.25 117.441406 C 74.921875 119.121094 74.835938 120.773438 75.066406 122.40625 C 75.257812 123.867188 75.765625 125.320312 75.875 126.769531 C 75.90625 127.011719 75.800781 127.148438 75.617188 127.273438 C 75.859375 127.242188 76.183594 127.226562 76.425781 127.195312 C 76.546875 126.1875 77.503906 125.34375 77.835938 124.457031 C 78.308594 123.28125 78.460938 122.121094 78.542969 120.867188 C 78.546875 120.472656 79.1875 120.441406 79.355469 120.789062 C 79.800781 122.148438 79.683594 123.550781 79.183594 124.882812 C 78.984375 125.476562 78.683594 126.210938 78.242188 126.835938 C 80.164062 126.34375 82.007812 125.4375 83.351562 124.671875 C 83.445312 124.609375 83.597656 124.640625 83.6875 124.578125 C 83.625 124.488281 83.625 124.488281 83.5625 124.394531 C 80.957031 119.914062 79.996094 115.519531 81.816406 110.71875 C 80.898438 110.9375 79.785156 110.957031 78.972656 110.636719 C 78.378906 110.441406 77.902344 110.03125 77.523438 109.558594 C 77.015625 108.902344 76.582031 107.46875 75.46875 107.484375 C 75.089844 108.203125 74.8125 107.199219 75.464844 107.089844 Z M 67.8125 111.292969 C 67.683594 113.171875 67.609375 115.144531 67.632812 117.050781 C 67.617188 117.523438 68.472656 117.613281 68.578125 117.078125 C 68.847656 114.910156 69.039062 112.726562 69.308594 110.558594 C 69.425781 109.152344 69.878906 107.65625 71.574219 107.511719 C 72.0625 107.449219 72.445312 107.527344 72.855469 107.449219 C 72.296875 108.6875 72.175781 110.09375 72.074219 111.417969 C 71.984375 112.671875 71.898438 113.925781 72.207031 115.175781 C 72.285156 115.585938 72.863281 115.460938 72.925781 115.15625 C 73.332031 113.890625 73.285156 112.53125 73.554688 111.15625 C 73.71875 109.917969 74.097656 108.804688 74.109375 107.539062 C 74.09375 107.214844 73.878906 107.09375 73.664062 106.972656 C 73.710938 106.742188 73.664062 106.574219 73.449219 106.453125 C 71.890625 105.511719 69.464844 106.144531 68.519531 107.703125 C 67.835938 108.757812 67.886719 110.117188 67.8125 111.292969 Z M 160.960938 253.195312 C 163.835938 254.316406 165.722656 256.035156 167.574219 258.308594 C 166.933594 252.703125 167.269531 246.976562 165.144531 241.640625 C 162.820312 235.707031 158.140625 232.085938 152.523438 229.554688 C 152.222656 231.082031 151.710938 232.488281 150.902344 233.757812 C 156.886719 237.632812 161.195312 243.5625 163.871094 250.117188 C 164.132812 250.804688 163.109375 251.15625 162.851562 250.472656 C 159.882812 244.175781 155.347656 239.394531 149.902344 235.222656 C 149.0625 236.25 148.089844 237.167969 147.070312 237.917969 C 147.054688 237.996094 147.039062 238.070312 147.023438 238.148438 C 146.824219 238.746094 146.71875 239.28125 146.523438 239.875 C 146.816406 240.011719 147 240.285156 147.078125 240.699219 C 148.09375 248.832031 154.464844 250.726562 160.960938 253.195312 Z M 151.625 228.898438 C 151.5625 228.804688 151.5625 228.804688 151.5 228.714844 C 147.820312 228.464844 144.609375 227.039062 141.664062 223.445312 C 138.597656 219.667969 136.222656 215.234375 135.488281 210.484375 C 130.019531 209.648438 127.171875 212.417969 122.519531 214.277344 C 119.835938 215.414062 116.859375 215.621094 114 215.21875 C 114.003906 216.011719 113.761719 216.835938 113.503906 217.339844 C 117.199219 216.320312 121.457031 216.449219 125.09375 216.925781 C 125.550781 217.015625 125.492188 217.71875 125.019531 217.707031 C 122.710938 217.726562 120.390625 217.824219 118.117188 218.089844 C 116.332031 218.292969 114.636719 218.832031 112.910156 219.128906 C 112.867188 219.359375 112.820312 219.585938 112.777344 219.816406 C 112.777344 219.816406 112.777344 219.816406 112.761719 219.890625 C 112.882812 219.679688 112.992188 219.542969 113.296875 219.601562 C 116.855469 219.667969 119.578125 221.15625 122.636719 222.949219 C 127.835938 225.957031 132.542969 227.4375 138.621094 226.8125 C 139.183594 226.765625 139.25 227.652344 138.683594 227.699219 C 134.929688 228.226562 131.3125 228.070312 127.671875 226.796875 C 122.535156 225.070312 118.617188 221.601562 113.132812 220.835938 C 112.902344 220.792969 112.703125 220.59375 112.65625 220.425781 C 112.640625 220.503906 112.640625 220.503906 112.625 220.578125 C 112.554688 221.753906 112.480469 222.929688 112.179688 224.0625 C 117.96875 224.488281 122.550781 230.628906 126.609375 234.203125 C 135.949219 242.390625 146.984375 240.363281 151.625 228.898438 Z M 110.664062 228.523438 C 117.046875 233.195312 122.089844 239.824219 126.566406 246.496094 C 125.417969 244.679688 124.28125 242.792969 123.128906 240.980469 C 119.785156 235.796875 116.535156 230.554688 110.664062 228.523438 Z M 122.820312 244.566406 C 123.878906 245.648438 124.84375 246.789062 125.898438 247.871094 C 121.039062 241.519531 116.152344 235.316406 110.089844 229.839844 C 112.578125 235.328125 119.160156 240.59375 122.820312 244.566406 Z M 106.050781 227.773438 C 106.078125 227.621094 106.125 227.390625 106.15625 227.238281 C 106.304688 226.472656 107.070312 226.226562 107.757812 226.363281 C 107.878906 226.148438 108.152344 225.96875 108.457031 226.027344 C 108.777344 226.011719 109.007812 226.054688 109.316406 226.117188 C 109.332031 226.039062 109.34375 225.964844 109.449219 225.828125 C 110.683594 224.402344 110.863281 223.089844 110.855469 221.5 C 110.460938 221.5 110.078125 221.425781 109.710938 221.273438 C 108.902344 220.957031 108.167969 220.652344 107.507812 220.363281 C 107.925781 221.082031 108.003906 221.890625 107.746094 222.792969 C 107.535156 223.464844 107.109375 224.015625 106.605469 224.550781 C 106.605469 224.945312 106.320312 225.210938 105.980469 225.300781 L 105.96875 225.375 C 105.023438 226.542969 104.769531 227.839844 104.511719 229.136719 C 104.695312 229.015625 104.890625 228.816406 105.167969 228.628906 C 105.304688 228.339844 105.683594 228.019531 106.050781 227.773438 Z M 89.871094 267.988281 C 89.753906 268.996094 89.558594 269.988281 89.4375 270.996094 L 89.5 271.089844 C 91.09375 273.863281 91.652344 277.070312 93.328125 279.855469 C 95.246094 283.011719 97.679688 284.761719 100.585938 286.921875 C 101.136719 287.347656 100.511719 288.097656 99.933594 287.824219 C 96.703125 286.472656 94.011719 284.039062 92.109375 281.203125 C 90.882812 279.375 89.589844 277.058594 88.792969 274.679688 C 88.550781 275.898438 88.386719 277.136719 88.144531 278.359375 C 93.984375 286.175781 98.210938 294.945312 108.765625 295.753906 C 103.40625 291.523438 106.464844 282.050781 99.769531 278.585938 C 99.402344 278.433594 99.308594 278.101562 99.292969 277.78125 C 94.957031 278.433594 91.6875 272.871094 89.871094 267.988281 Z M 86.140625 292.960938 C 86.0625 292.945312 86.0625 292.945312 85.988281 292.933594 C 86.046875 293.023438 86.109375 293.113281 86.171875 293.207031 C 87.066406 295.921875 88.675781 297.429688 90.484375 299.53125 C 92.167969 301.449219 93.59375 303.476562 94.898438 305.714844 C 95.265625 306.265625 94.425781 306.894531 94.074219 306.269531 C 92.15625 303.511719 89.96875 300.9375 87.410156 298.609375 C 87.074219 298.304688 86.734375 297.996094 86.414062 297.617188 C 90.300781 305.285156 95.707031 315.320312 103.832031 317.554688 C 100.941406 315.320312 100.046875 311.414062 98.996094 307.875 C 96.882812 300.472656 94.511719 294.371094 86.140625 292.960938 Z M 83.207031 319.519531 C 83.132812 319.503906 83.132812 319.503906 83.207031 319.519531 C 84.542969 321.210938 85.675781 323.101562 87.105469 324.730469 C 88.925781 326.753906 91.039062 328.523438 93.167969 330.210938 C 93.855469 330.742188 93.0625 331.933594 92.285156 331.464844 C 89.820312 329.871094 87.585938 327.921875 85.5625 325.695312 C 84.523438 324.539062 83.34375 323.273438 82.40625 321.980469 C 82.390625 322.058594 82.375 322.132812 82.4375 322.226562 C 85.242188 330.554688 92.128906 336.277344 100.113281 339.273438 C 98.683594 337.644531 98.070312 335.539062 97.21875 332.992188 C 95.140625 326.234375 91.484375 319.007812 83.207031 319.519531 Z M 84.015625 339.597656 C 84 339.671875 84 339.671875 83.984375 339.75 C 85.996094 343.636719 86.925781 348.183594 86.773438 352.597656 C 86.710938 353.296875 85.65625 353.410156 85.640625 352.691406 C 85.722656 348.660156 85.007812 345.027344 83.5 341.398438 C 82.367188 345.9375 82.65625 350.515625 83.894531 355.121094 C 84.539062 357.472656 85.371094 359.699219 85.941406 362.035156 C 86.863281 358.566406 87.863281 355.113281 88.25 351.539062 C 88.828125 346.574219 86.546875 343.269531 84.015625 339.597656 Z M 79.046875 321.320312 C 78.085938 322.558594 77.113281 323.875 76.09375 325.019531 C 74.464844 326.84375 72.300781 328.558594 71.4375 330.929688 C 71.257812 331.445312 70.445312 331.128906 70.550781 330.59375 C 71.109375 328.5625 72.570312 327.183594 73.910156 325.621094 C 75.859375 323.386719 77.59375 321.03125 79.191406 318.570312 C 79.402344 318.296875 79.664062 318.1875 79.816406 318.214844 C 79.816406 318.214844 79.816406 318.214844 79.832031 318.140625 C 79.90625 317.757812 80.179688 317.574219 80.421875 317.542969 C 80.394531 317.300781 80.421875 317.144531 80.390625 316.902344 C 75.570312 319.207031 71.285156 321.617188 67.972656 325.960938 C 64.335938 330.71875 63.054688 336.417969 61.40625 341.964844 C 65.261719 339.710938 69.261719 338.351562 72.472656 334.941406 C 76.171875 331.066406 77.6875 326.207031 79.046875 321.320312 Z M 82.496094 293.75 C 82.554688 293.445312 82.613281 293.140625 82.597656 292.820312 C 81.53125 293.796875 80.25 294.660156 79.308594 295.425781 C 76.199219 297.90625 72.890625 299.792969 69.304688 301.464844 C 68.863281 301.699219 68.527344 300.996094 68.96875 300.765625 C 71.667969 299.152344 74.316406 297.375 76.832031 295.492188 C 79.253906 293.667969 81.113281 291.492188 83.183594 289.445312 C 83.289062 288.910156 83.394531 288.371094 83.425781 287.824219 C 76.726562 290.394531 70.808594 293.035156 67.058594 299.597656 C 65.003906 303.160156 63.964844 307.238281 60.5625 309.1875 C 65.574219 309.140625 69.820312 305.300781 73.738281 302.339844 C 77.042969 299.660156 79.890625 296.886719 82.496094 293.75 Z M 96.441406 231.832031 C 93.335938 235.503906 89.28125 238.355469 85.902344 241.816406 C 82.8125 245.011719 79.722656 248.214844 76.554688 251.398438 C 84.386719 245.882812 92.601562 240.835938 96.441406 231.832031 Z M 81.640625 242.085938 C 78.554688 246.082031 75.894531 250.316406 72.589844 254.1875 C 76.640625 249.75 80.84375 245.339844 85.027344 241.007812 C 88.820312 237.074219 93.621094 233.65625 96.859375 229.296875 C 97.074219 229.019531 97.316406 228.988281 97.535156 229.109375 C 97.761719 228.757812 98.113281 228.589844 98.511719 228.589844 C 98.21875 228.453125 98.035156 228.175781 98.265625 227.824219 C 99.582031 224.753906 96.089844 221.921875 97.808594 218.847656 C 99.207031 216.1875 102.625 215.355469 104.21875 212.894531 C 103.714844 212.632812 103.132812 212.359375 102.601562 212.253906 C 101.378906 212.015625 100.308594 212.597656 99.148438 212.449219 L 99.074219 212.433594 C 99.058594 212.507812 99.042969 212.585938 99.101562 212.679688 C 99.121094 213 98.757812 213.242188 98.496094 213.351562 C 98.539062 213.519531 98.664062 213.703125 98.710938 213.871094 C 98.863281 214.296875 98.253906 214.574219 98.007812 214.207031 C 94.632812 208.386719 90.472656 204.945312 84.808594 201.449219 C 81.261719 199.320312 80.09375 196.792969 78.050781 193.851562 C 80.996094 203.871094 88.101562 209.71875 97.355469 214.714844 C 98.074219 215.09375 97.742188 216.378906 96.839844 216.121094 C 96.761719 216.105469 96.6875 216.089844 96.6875 216.089844 C 96.550781 216.378906 96.261719 216.640625 95.769531 216.703125 C 95.359375 216.78125 95.039062 216.796875 94.644531 216.796875 C 94.507812 217.484375 94.554688 218.050781 94.769531 218.570312 C 95.210938 218.734375 95.578125 218.886719 96.007812 219.128906 C 96.4375 219.371094 96.285156 220.136719 95.671875 220.015625 C 95.597656 220 95.519531 219.984375 95.367188 219.957031 C 95.492188 220.136719 95.523438 220.382812 95.566406 220.550781 C 96.089844 220.734375 96.183594 221.464844 95.722656 221.769531 C 95.746094 223.285156 95.152344 224.671875 95.984375 226.109375 C 96.503906 226.289062 96.808594 226.746094 96.71875 227.203125 C 97.191406 227.613281 97.335938 228.515625 96.769531 228.960938 C 90.992188 232.902344 85.828125 236.5625 81.640625 242.085938 Z M 77.066406 190.800781 C 77.097656 191.042969 77.191406 191.378906 77.296875 191.636719 C 77.296875 191.636719 77.375 191.652344 77.359375 191.730469 C 77.558594 191.929688 77.683594 192.109375 77.804688 192.292969 C 77.511719 191.761719 77.28125 191.320312 77.066406 190.800781 Z M 85.460938 198.960938 C 83.285156 197.5 80.5625 195.613281 78.691406 193.417969 C 79.722656 195.050781 80.398438 196.851562 81.792969 198.238281 C 84.058594 200.429688 87.253906 201.535156 89.824219 203.390625 C 92.960938 205.59375 95.578125 208.414062 97.390625 211.707031 C 96.605469 208.058594 96.152344 205.113281 92.417969 202.710938 C 90.230469 201.328125 87.707031 200.433594 85.460938 198.960938 Z M 97.464844 195.214844 C 98.304688 200.222656 99.144531 205.226562 99.742188 210.261719 C 100.683594 209.894531 101.875 209.890625 102.792969 210.070312 C 102.792969 210.070312 102.792969 210.070312 102.871094 210.085938 C 102.496094 207.953125 103.027344 205.675781 103.445312 203.535156 C 104.246094 199.488281 105.042969 195.4375 105.898438 191.480469 C 106.003906 190.949219 106.847656 191.113281 106.742188 191.648438 C 105.738281 197.957031 103.933594 204.269531 104.199219 210.585938 C 104.917969 210.96875 105.621094 211.421875 106.328125 211.878906 C 106.269531 208.140625 107.492188 204.332031 108.660156 200.835938 C 108.828125 200.390625 109.515625 200.527344 109.425781 200.984375 C 108.289062 204.730469 108.011719 208.5625 107.5 212.351562 C 108.175781 212.5625 108.96875 212.558594 109.824219 212.25 L 109.839844 212.175781 C 112.011719 208 114.085938 203.09375 117.453125 199.710938 C 119.722656 197.460938 122.4375 196.167969 123.832031 193.113281 C 124.847656 190.773438 125.191406 188.222656 125.386719 185.640625 C 121.84375 186.292969 118.042969 186.65625 114.46875 186.265625 C 113.800781 188.4375 113.304688 190.5625 112.789062 192.761719 C 112.699219 193.21875 112 193.160156 112.011719 192.6875 C 112.050781 190.472656 112.503906 188.179688 113.152344 186.089844 C 108.066406 185.320312 103.480469 183.226562 100.425781 178.980469 C 95.292969 183.28125 96.53125 189.476562 97.464844 195.214844 Z M 105.410156 222.964844 C 105.988281 222.046875 106.183594 221.054688 105.140625 220.292969 L 105.082031 220.203125 C 102.960938 220.5 101.203125 220.152344 100.066406 218.261719 C 98.574219 219.792969 98.75 221.335938 99.132812 223 C 99.285156 223.03125 99.363281 223.046875 99.5 223.148438 C 100.605469 224.003906 101.703125 224.0625 102.863281 223.414062 C 103.378906 223.203125 103.835938 222.894531 104.417969 222.769531 C 104.738281 222.753906 105.121094 222.828125 105.410156 222.964844 Z M 101.6875 229.769531 C 101.960938 229.585938 102.375 229.507812 102.652344 229.722656 C 102.433594 228.410156 102.78125 227.050781 103.34375 225.8125 C 103.496094 225.445312 103.796875 225.109375 104.027344 224.757812 C 103.21875 224.835938 102.042969 225.160156 101.570312 225.144531 C 100.777344 225.144531 100.117188 224.859375 99.476562 224.492188 C 99.722656 225.652344 99.878906 226.875 99.410156 228.050781 C 99.5625 228.082031 99.699219 228.1875 99.835938 228.296875 C 100.390625 229.117188 101.015625 229.558594 101.6875 229.769531 Z M 113.726562 210.164062 C 113.59375 210.453125 113.269531 210.472656 113.039062 210.425781 C 112.460938 211.34375 111.871094 212.335938 111.21875 213.242188 C 111.003906 213.515625 110.667969 213.605469 110.378906 213.472656 C 109.222656 214.511719 107.664062 214.367188 106.179688 213.835938 C 106.101562 213.820312 106.101562 213.820312 106.023438 213.804688 C 104.613281 215.75 102.613281 216.226562 100.84375 217.542969 C 102.578125 220.027344 104.328125 218.386719 106.496094 218.261719 C 108.007812 218.238281 109.21875 219.351562 110.699219 219.484375 C 110.714844 219.410156 110.730469 219.335938 110.746094 219.257812 C 110.636719 218.996094 110.710938 218.613281 110.972656 218.507812 C 111.445312 217.328125 112.476562 216.109375 112.214844 215.023438 C 112.136719 215.007812 112.078125 214.917969 112.078125 214.917969 C 112 214.902344 111.910156 214.964844 111.832031 214.949219 C 110.71875 214.96875 110.574219 213.273438 111.703125 213.179688 C 112.347656 213.144531 112.910156 213.097656 113.476562 213.050781 C 118.386719 210.6875 121.808594 205.804688 125.585938 201.949219 C 128.476562 198.945312 131.476562 195.808594 134.628906 193.097656 C 134.980469 192.53125 135.40625 191.980469 135.816406 191.507812 C 127.507812 196.613281 118.648438 200.898438 113.726562 210.164062 Z M 131.4375 198.023438 C 128.710938 200.578125 125.894531 203.199219 123.304688 205.863281 C 121.019531 208.1875 118.90625 210.46875 116.328125 212.265625 C 122.769531 210.203125 127.457031 204.539062 131.058594 198.742188 C 131.117188 198.433594 131.316406 198.234375 131.4375 198.023438 Z M 151.621094 227.707031 L 151.695312 227.722656 C 151.710938 227.644531 151.789062 227.660156 151.800781 227.585938 C 151.789062 227.660156 151.710938 227.644531 151.621094 227.707031 Z M 153.335938 272.957031 C 154.511719 277.074219 154.464844 281.746094 154.136719 285.8125 C 154.109375 286.359375 153.253906 286.269531 153.191406 285.78125 C 153.042969 282.101562 152.894531 278.027344 151.921875 274.503906 C 150.855469 270.644531 148.484375 268.589844 145.695312 266.214844 C 143.917969 273.640625 143.660156 280.574219 148.066406 287.230469 C 150.199219 290.507812 153.046875 292.972656 154.597656 296.375 C 155.070312 290.757812 155.832031 284.875 155.402344 279.394531 C 155.289062 276.753906 154.503906 274.695312 153.335938 272.957031 Z M 78.46875 270.265625 C 79.246094 269.148438 80.054688 267.878906 80.917969 266.699219 C 76.023438 269.386719 71.910156 272.542969 68.960938 277.4375 C 68.703125 277.941406 67.90625 277.546875 68.167969 277.039062 C 70.765625 272.316406 74.632812 268 79.480469 265.546875 C 75.070312 266.578125 70.921875 268.300781 67.171875 271.210938 C 63.226562 274.320312 60.796875 279 56.742188 281.851562 C 61.632812 283.214844 65.25 282.578125 69.410156 279.191406 C 72.867188 276.542969 75.960938 273.738281 78.46875 270.265625 Z M 81.695312 265.585938 C 81.816406 265.371094 82.011719 265.171875 82.121094 265.035156 C 81.875 265.0625 81.632812 265.09375 81.464844 265.144531 C 81.527344 265.234375 81.648438 265.414062 81.695312 265.585938 Z M 169.121094 260.117188 C 169.140625 260.835938 168.238281 260.976562 167.945312 260.441406 C 167.871094 260.425781 167.71875 260.398438 167.65625 260.308594 C 163.0625 255.433594 156.980469 255.265625 151.628906 251.832031 C 148.949219 250.113281 146.804688 247.707031 145.773438 244.886719 C 144.953125 251.070312 145.273438 257.484375 145.261719 263.589844 C 145.539062 263.40625 145.949219 263.328125 146.316406 263.480469 C 160.855469 269.441406 156.996094 286.214844 155.472656 298.375 C 155.578125 298.628906 155.597656 298.953125 155.6875 299.285156 C 155.84375 300.109375 154.53125 300.328125 154.285156 299.566406 C 152.785156 293.082031 145.792969 289.085938 143.578125 282.617188 C 141.714844 277.171875 141.453125 270.453125 144.136719 265.273438 C 144.261719 265.058594 144.441406 264.933594 144.625 264.8125 C 144.640625 264.734375 144.65625 264.660156 144.667969 264.582031 C 144.683594 264.507812 144.699219 264.429688 144.714844 264.351562 C 144.5625 264.324219 144.5 264.234375 144.472656 263.988281 C 143.964844 258.890625 143.96875 253.65625 144.027344 248.507812 C 144.050781 245.574219 143.828125 242.28125 144.703125 239.4375 C 141.898438 240.789062 138.769531 241.363281 135.667969 240.988281 C 131.175781 240.421875 127.566406 237.804688 124.246094 234.929688 C 122.347656 233.285156 120.554688 231.503906 118.640625 229.9375 C 116.453125 228.15625 113.945312 227.1875 111.695312 225.710938 C 111.496094 225.910156 111.375 226.125 111.175781 226.324219 C 115.714844 227.457031 118.945312 230.792969 121.570312 234.796875 C 126.480469 242.113281 131.222656 249.871094 135.320312 257.664062 C 135.609375 258.195312 134.878906 258.6875 134.585938 258.15625 L 134.527344 258.0625 C 134.359375 258.109375 134.203125 258.078125 133.992188 257.957031 C 127.886719 252.707031 122.414062 246.632812 117.066406 240.734375 C 114.339844 237.660156 110.742188 234.570312 108.945312 230.804688 C 110.398438 241.5625 121.035156 250.402344 122.699219 261.285156 C 123.292969 265.132812 122.496094 269.578125 119.695312 272.515625 C 116.101562 276.253906 111.226562 274.8125 106.753906 276.15625 C 106.160156 276.355469 105.789062 275.410156 106.386719 275.210938 C 106.996094 274.933594 107.574219 274.808594 108.246094 274.625 C 104.855469 269.273438 103.3125 263.019531 103.613281 256.652344 C 103.671875 255.949219 104.804688 255.855469 104.742188 256.558594 C 104.378906 262.832031 106.015625 268.628906 109.4375 273.828125 C 109.558594 274.011719 109.605469 274.179688 109.574219 274.332031 C 110.554688 274.207031 111.589844 274.171875 112.71875 274.078125 C 116.917969 273.714844 120.242188 271.355469 121.3125 267.121094 C 122.882812 260.765625 119.09375 255.019531 116.054688 249.898438 C 112.773438 244.410156 106.59375 237.085938 106.226562 230.109375 C 106.136719 230.167969 106.042969 230.230469 105.949219 230.292969 C 105.128906 230.84375 104.320312 231.320312 103.355469 231.371094 C 103.28125 231.355469 103.203125 231.339844 103.039062 231.386719 C 102.789062 235.460938 102.386719 239.511719 102.140625 243.585938 C 102.113281 244.136719 101.089844 244.09375 101.117188 243.542969 C 101.289062 239.453125 101.382812 235.34375 101.570312 231.175781 C 101.207031 231.023438 100.835938 230.875 100.546875 230.734375 C 98.613281 238.132812 93.546875 244.511719 91.796875 252.179688 C 90.515625 257.878906 90.777344 281.101562 102.371094 275.449219 C 102.886719 275.234375 103.148438 275.921875 102.769531 276.242188 C 102.386719 276.566406 102.023438 276.808594 101.582031 277.042969 C 108.828125 280.132812 105.332031 291.429688 111.453125 295.808594 C 111.59375 295.914062 111.65625 296.003906 111.640625 296.082031 C 112.035156 296.476562 111.871094 297.320312 111.226562 297.351562 C 99.867188 297.808594 93.191406 290.621094 87.835938 281.949219 C 87.25 285.324219 86.601562 288.609375 86.015625 291.984375 C 86.121094 291.847656 86.214844 291.785156 86.308594 291.722656 C 90.578125 290.183594 94.757812 293.152344 97.179688 296.566406 C 101.394531 302.554688 99.6875 314.039062 106.660156 317.714844 C 107.164062 317.972656 107.058594 318.507812 106.695312 318.753906 C 106.695312 318.753906 106.679688 318.828125 106.601562 318.8125 C 101.660156 320.933594 96.683594 315.191406 93.753906 311.917969 C 90.1875 307.882812 87.269531 303.339844 84.78125 298.644531 C 83.734375 305.183594 83.003906 311.703125 82.746094 318.238281 C 82.839844 318.179688 82.929688 318.117188 83.023438 318.054688 C 87.21875 316.898438 91.3125 318.660156 94.179688 321.839844 C 98.789062 327.035156 98.039062 336.882812 103.992188 340.515625 L 104.066406 340.53125 C 105.277344 340.851562 104.898438 342.761719 103.691406 342.441406 C 94.140625 339.765625 86.488281 333.496094 82.71875 324.421875 C 82.839844 329.050781 83.34375 333.75 84.238281 338.449219 C 86.664062 341.070312 88.992188 344.148438 89.566406 347.671875 C 90.496094 353.015625 87.917969 359.25 86.742188 364.414062 C 86.714844 364.566406 86.605469 364.703125 86.515625 364.765625 C 86.5 365.238281 85.863281 365.269531 85.796875 364.785156 C 85.585938 364.660156 85.460938 364.480469 85.519531 364.171875 C 85.535156 364.097656 85.566406 363.945312 85.582031 363.867188 C 84.867188 359.839844 82.75 356.085938 81.882812 352.03125 C 81 347.648438 81.15625 343.636719 82.546875 339.386719 C 82.59375 339.15625 82.761719 339.109375 82.867188 338.972656 C 81.675781 333.738281 80.976562 328.445312 80.746094 323.160156 C 79.519531 327.363281 77.394531 331.308594 74.59375 334.644531 C 70.746094 339.28125 65.964844 340.5625 61.011719 343.554688 C 60.695312 343.96875 59.867188 343.722656 59.910156 343.097656 C 61.28125 330.910156 67.613281 317.71875 80.523438 314.625 C 80.691406 308.949219 81.179688 303.25 81.910156 297.523438 C 79.015625 300.523438 75.585938 303.023438 72.171875 305.445312 C 68.226562 308.160156 63.320312 312.109375 58.425781 309.957031 C 58.351562 309.941406 58.261719 310 58.183594 309.984375 C 57.679688 310.125 57.3125 309.578125 57.386719 309.195312 C 57.371094 308.875 57.507812 308.585938 57.890625 308.660156 C 57.964844 308.675781 57.964844 308.675781 58.042969 308.691406 C 62.890625 307.027344 63.445312 301.820312 65.644531 297.890625 C 66.875 295.671875 68.457031 293.683594 70.316406 291.90625 C 73.804688 288.703125 78.652344 285.851562 83.449219 285.6875 C 83.523438 285.703125 83.601562 285.714844 83.679688 285.730469 C 84.984375 277.894531 86.519531 270.105469 87.808594 262.34375 C 77.96875 270.800781 70.644531 289.035156 55.261719 282.511719 C 54.679688 282.242188 55.03125 281.277344 55.625 281.476562 C 58.660156 279.371094 60.195312 276.027344 62.628906 273.332031 C 64.363281 271.371094 66.359375 269.703125 68.480469 268.214844 C 72.972656 265.132812 78.3125 263.011719 83.703125 262.644531 C 83.777344 262.660156 83.855469 262.675781 83.929688 262.691406 C 85.132812 261.421875 86.519531 260.421875 88.214844 259.886719 C 88.242188 259.734375 88.273438 259.578125 88.304688 259.425781 C 88.230469 254.972656 89.117188 250.460938 90.511719 246.214844 C 90.953125 244.796875 91.496094 243.234375 92.117188 241.691406 C 85.628906 248.03125 76.695312 252.300781 69.652344 257.816406 C 69.183594 258.195312 68.632812 257.375 69.101562 256.992188 C 69.300781 256.792969 69.484375 256.667969 69.757812 256.488281 C 69.773438 256.410156 69.789062 256.332031 69.816406 256.179688 C 76.421875 248.042969 81.09375 237.613281 89.367188 231.070312 C 86.519531 232.652344 83.667969 234.234375 80.585938 235.371094 C 75.445312 237.292969 69.410156 236.5 64.214844 235.082031 C 54.875 232.527344 53.164062 221.875 57.984375 214.332031 C 58.226562 213.90625 58.871094 214.273438 58.625 214.699219 C 55.632812 219.820312 55.550781 228.695312 61.4375 231.839844 C 65.019531 233.8125 71.648438 234.40625 75.527344 234.054688 C 82.320312 233.410156 87.3125 227.414062 93.785156 226.386719 C 93.292969 225.257812 93.300781 223.992188 93.347656 222.574219 C 93.363281 222.496094 93.363281 222.496094 93.300781 222.40625 C 89.378906 223.378906 86.144531 226.074219 82.195312 227.199219 C 78.75 228.183594 75.34375 228.148438 71.839844 227.378906 C 71.386719 227.289062 71.503906 226.679688 71.976562 226.691406 C 77.21875 227.488281 82.085938 226.542969 86.660156 223.875 C 88.902344 222.570312 90.699219 221.496094 93.003906 221.078125 C 92.851562 220.648438 92.605469 220.285156 92.375 219.84375 C 86.664062 219.828125 80.871094 223.050781 75.394531 220.226562 C 74.96875 219.984375 75.316406 219.417969 75.683594 219.570312 C 81.066406 222.054688 86.566406 217.90625 91.910156 218.164062 C 91.851562 217.675781 91.957031 217.140625 92.0625 216.605469 C 88.257812 215.777344 84.980469 213.070312 81.28125 211.707031 C 74.707031 209.21875 65.875 208.113281 60.289062 213.121094 C 59.800781 213.582031 58.972656 212.941406 59.472656 212.40625 C 63.207031 208.382812 68.730469 207.722656 73.925781 207.953125 C 76.75 208.113281 79.53125 208.503906 82.207031 209.425781 C 85.171875 210.488281 87.679688 212.25 90.464844 213.433594 C 82.859375 208.523438 77.609375 199.320312 76.105469 190.847656 C 76.042969 190.359375 76.683594 190.328125 76.851562 190.675781 C 76.835938 190.359375 77.339844 190.21875 77.523438 190.492188 C 81.421875 196.894531 88.769531 198.261719 94.386719 202.386719 C 95.503906 203.160156 96.332031 204.199219 96.988281 205.28125 C 96.015625 199.769531 95.066406 194.109375 95.019531 188.703125 C 94.960938 184.566406 96.050781 180.65625 99.738281 178.445312 C 99.433594 177.988281 99.140625 177.453125 98.847656 176.921875 C 98.621094 176.480469 99.394531 176.15625 99.644531 176.519531 C 106.519531 188.75 124.222656 185.097656 134.683594 179.9375 C 140.050781 177.265625 144.5625 173.710938 148.71875 169.527344 C 151.6875 166.542969 154.628906 163.3125 158.40625 161.441406 C 159.460938 160.933594 160.5625 162.582031 159.695312 163.359375 C 149.933594 172.230469 141.316406 181.71875 128.089844 185.222656 C 127.503906 185.347656 126.910156 185.546875 126.253906 185.65625 C 126.117188 189.992188 125.820312 194.296875 122.886719 197.527344 C 128.507812 193.554688 134.679688 189.617188 140.890625 186.714844 C 141.070312 186.589844 141.285156 186.710938 141.332031 186.882812 C 141.699219 187.03125 141.835938 187.535156 141.457031 187.859375 C 140.070312 188.851562 138.804688 190.03125 137.605469 191.304688 C 137.726562 191.484375 137.753906 191.730469 137.558594 191.925781 C 136.660156 192.863281 135.777344 193.722656 134.878906 194.652344 C 129.785156 201.585938 125.714844 210.148438 118.152344 213.496094 C 119.1875 213.460938 120.167969 213.335938 121.1875 212.984375 C 122.882812 212.441406 124.40625 211.554688 125.976562 210.832031 C 129.042969 209.375 131.941406 208.753906 135.210938 209.480469 C 135.085938 208.5 135.050781 207.464844 135.160156 206.53125 C 135.59375 199.078125 139.132812 191.605469 143.269531 185.515625 C 147.527344 179.210938 154.703125 174.597656 157.554688 167.382812 C 158.011719 166.285156 159.949219 166.902344 159.558594 168.09375 C 158.074219 172.800781 154.695312 175.863281 151.3125 179.324219 C 146.835938 183.917969 143.109375 189.132812 140.441406 195.035156 C 137.164062 202.402344 135.625 209.796875 139.542969 217.3125 C 140.921875 219.964844 142.703125 223.015625 144.847656 225.023438 C 146.792969 226.835938 148.929688 227.65625 151.117188 227.847656 C 150.964844 227.816406 150.839844 227.636719 150.808594 227.390625 C 149.953125 222.460938 150.917969 217.570312 151.941406 212.777344 C 152.050781 212.238281 152.8125 212.390625 152.707031 212.925781 C 151.910156 217.765625 151.238281 222.394531 151.863281 227.277344 C 151.910156 227.449219 151.800781 227.585938 151.789062 227.660156 C 151.984375 227.464844 152.230469 227.429688 152.535156 227.492188 C 152.917969 227.566406 153.207031 227.703125 153.589844 227.78125 C 153.910156 227.761719 154.308594 227.761719 154.644531 227.667969 C 154.242188 226.082031 154.710938 224.109375 155.054688 222.75 C 155.222656 222.308594 155.835938 222.429688 155.746094 222.886719 C 155.535156 223.957031 155.476562 225.054688 155.585938 226.109375 C 155.648438 226.597656 155.726562 227.011719 155.867188 227.511719 C 156.445312 227.386719 157.085938 227.355469 157.667969 227.230469 C 158.398438 227.140625 158.433594 228.175781 157.761719 228.363281 C 157.179688 228.488281 156.539062 228.519531 155.960938 228.644531 L 155.945312 228.71875 C 167.613281 233.953125 169.300781 248.332031 169.121094 260.117188 Z M 284.398438 40.429688 C 285.902344 43.265625 286.554688 46.410156 285.433594 49.675781 C 285.054688 50.792969 284.507812 51.957031 283.976562 53.042969 C 289.792969 46.890625 295.472656 40.628906 298.242188 32.207031 C 298.425781 31.6875 299.277344 31.777344 299.15625 32.386719 C 298.136719 38.375 294.609375 43.394531 290.695312 47.9375 C 287.378906 51.886719 283.96875 55.894531 280.347656 59.785156 C 284.871094 56.550781 289.796875 53.710938 294.539062 51.394531 C 294.492188 51.222656 294.539062 50.996094 294.648438 50.859375 C 297.171875 47.707031 299.925781 45.394531 301.996094 41.753906 C 303.820312 38.542969 305.226562 35.011719 306.011719 31.4375 C 307.066406 26.488281 306.425781 21.28125 308.871094 16.925781 C 298.933594 23.058594 287.953125 28.433594 284.398438 40.429688 Z M 324.851562 40.148438 C 327.929688 38.214844 330.488281 35.703125 333.582031 33.699219 C 337.683594 31.011719 342.199219 29.046875 346.699219 27.15625 C 347.125 27.003906 347.460938 27.703125 347.097656 27.949219 C 341.972656 30.589844 336.832031 33.304688 332.3125 36.9375 C 330.039062 38.789062 327.941406 40.996094 325.347656 42.46875 C 333.289062 42.445312 339.863281 39.695312 346.210938 34.042969 C 351.210938 29.632812 356.53125 27.1875 362.757812 25.398438 C 355.070312 23.328125 347.328125 23.550781 339.8125 27.066406 C 333.097656 30.109375 329.203125 34.976562 324.851562 40.148438 Z M 320.890625 54.207031 C 322.996094 54.382812 325.121094 54.878906 327.21875 55.53125 C 333.410156 57.542969 339.476562 60.167969 345.609375 62.488281 C 346.203125 62.683594 345.839844 63.722656 345.246094 63.527344 C 336.121094 60.699219 325.75 55.71875 316.058594 56.984375 C 320.855469 58.007812 324.894531 60.46875 329.179688 63.296875 C 337.027344 68.574219 344.875 67.820312 352.898438 64.164062 C 346.519531 61.082031 343.488281 53.898438 335.941406 52.332031 C 330.53125 51.183594 325.621094 52.363281 320.890625 54.207031 Z M 314.757812 56.726562 C 314.835938 56.742188 314.914062 56.757812 314.988281 56.773438 L 314.929688 56.679688 C 314.851562 56.664062 314.757812 56.726562 314.757812 56.726562 Z M 275.667969 31.171875 C 278.175781 32.933594 280.964844 35.308594 282.941406 38.160156 C 286.128906 26.40625 300.695312 19.757812 310.375 14.523438 C 311.003906 14.171875 311.632812 15.007812 311.144531 15.46875 C 311.1875 15.632812 311.222656 15.878906 311.023438 16.078125 C 306.625 21.875 308.242188 31.398438 305.863281 38.230469 C 304.589844 41.871094 302.511719 45.984375 299.617188 48.984375 C 306.222656 46.078125 313.269531 43.738281 320.246094 42.574219 C 320.292969 42.34375 320.488281 42.144531 320.792969 42.207031 C 320.886719 42.144531 320.996094 42.007812 321.160156 41.960938 C 321.234375 41.976562 321.25 41.898438 321.25 41.898438 C 327.558594 25.605469 351.003906 16.578125 366.390625 24.691406 C 367.398438 25.203125 366.640625 26.640625 365.597656 26.277344 C 365.523438 26.265625 365.449219 26.25 365.296875 26.21875 C 365.203125 26.277344 365.097656 26.417969 364.929688 26.464844 C 360.121094 27.894531 355.257812 29.242188 350.972656 32.042969 C 347.328125 34.421875 344.4375 37.820312 340.597656 40 C 335.246094 42.988281 328.941406 44.367188 322.90625 43.574219 C 322.476562 43.726562 321.976562 43.867188 321.488281 43.929688 C 321.074219 44.003906 320.800781 43.792969 320.679688 43.613281 C 311.859375 46.078125 303.542969 48.804688 295.402344 53.070312 C 298.941406 52.421875 302.511719 52.40625 305.679688 53.667969 C 307.527344 54.351562 309.332031 55.261719 311.019531 56.386719 C 311.03125 56.308594 311.109375 56.324219 311.121094 56.25 C 318.167969 52.320312 326.375 48.941406 334.546875 50.152344 C 338.335938 50.660156 341.667969 52.269531 344.410156 54.875 C 347.6875 57.976562 350.613281 60.859375 354.179688 63.703125 C 354.5 63.683594 354.714844 64.203125 354.5 64.476562 C 350.699219 69.285156 342.589844 70.148438 336.9375 69.429688 C 333.304688 68.953125 330.367188 67.339844 327.445312 65.253906 C 323.25 62.367188 319.503906 60.441406 314.902344 59.214844 C 317.765625 61.601562 320.144531 64.453125 321.753906 67.546875 C 322.042969 68.082031 321.316406 68.574219 320.929688 68.101562 C 316.914062 62.707031 309.824219 56.789062 303.027344 55.449219 C 296.835938 54.226562 287.945312 57.074219 283.632812 61.621094 C 280.726562 64.699219 278.734375 67.558594 274.863281 69.496094 C 268.578125 72.78125 266.605469 77.152344 263.234375 82.992188 C 262.75 83.847656 261.324219 83.410156 261.519531 82.417969 C 262.742188 77.421875 265.21875 72.910156 269.164062 69.800781 C 272.28125 64.863281 276.5625 60.863281 279.96875 56.0625 C 282.953125 51.808594 284.894531 47.585938 282.816406 42.816406 C 282.527344 42.679688 282.191406 42.375 282.28125 41.914062 C 282.296875 41.839844 282.3125 41.761719 282.328125 41.6875 C 282.261719 41.597656 282.21875 41.429688 282.15625 41.335938 C 280.175781 38.089844 276.964844 35.472656 273.8125 33.34375 C 272.433594 32.277344 274.199219 30.164062 275.667969 31.171875 Z M 192.195312 138.183594 C 197.769531 136.503906 203.539062 136.613281 208.953125 134.109375 C 215.054688 131.34375 220.691406 126.503906 223.558594 120.402344 C 223.589844 120.25 223.804688 120.375 223.695312 120.511719 C 220.96875 126.71875 217.175781 131.445312 211.203125 134.789062 C 205.925781 137.796875 198.390625 140.59375 192.21875 139.699219 C 191.515625 139.636719 191.4375 138.429688 192.195312 138.183594 " fill-opacity="1" fill-rule="nonzero"/></g></g></g></g></g></svg>