<?xml version="1.0" encoding="utf-8"?>
<svg viewBox="0 0 500 500" xmlns="http://www.w3.org/2000/svg">
  <defs>
    <clipPath id="4dc3e8cee1">
      <path d="M 111 78 L 280 78 L 280 154 L 111 154 Z M 111 78 " clip-rule="nonzero"/>
    </clipPath>
    <clipPath id="c8588a1319">
      <path d="M 151.644531 216.894531 L 99.0625 125.148438 L 227.902344 51.304688 L 280.484375 143.054688 Z M 151.644531 216.894531 " clip-rule="nonzero"/>
    </clipPath>
    <clipPath id="90f21dc3a0">
      <path d="M 151.644531 216.894531 L 99.0625 125.148438 L 227.902344 51.304688 L 280.484375 143.054688 Z M 151.644531 216.894531 " clip-rule="nonzero"/>
    </clipPath>
    <clipPath id="f66db4bc44">
      <path d="M 151.644531 216.894531 L 99.0625 125.148438 L 227.902344 51.304688 L 280.484375 143.054688 Z M 151.644531 216.894531 " clip-rule="nonzero"/>
    </clipPath>
    <clipPath id="af025866f1">
      <path d="M 151.605469 216.824219 L 99.070312 125.167969 L 228.167969 51.175781 L 280.703125 142.835938 Z M 151.605469 216.824219 " clip-rule="nonzero"/>
    </clipPath>
    <clipPath id="56e9eaeb0e">
      <path d="M 151.605469 216.824219 L 99.101562 125.214844 L 227.941406 51.371094 L 280.449219 142.980469 Z M 151.605469 216.824219 " clip-rule="nonzero"/>
    </clipPath>
  </defs>
  <g clip-path="url(#4dc3e8cee1)" transform="matrix(0, -1.080265, 1.049767, 0, 33.078163, 403.053101)" style="">
    <g clip-path="url(#c8588a1319)">
      <g clip-path="url(#90f21dc3a0)">
        <g clip-path="url(#f66db4bc44)">
          <g clip-path="url(#af025866f1)">
            <g clip-path="url(#56e9eaeb0e)">
              <path d="M 186.296875 88.34375 C 186.34375 88.179688 186.109375 88.074219 186.027344 88.226562 C 185.675781 88.871094 185.21875 89.507812 184.691406 90.019531 C 184.132812 90.542969 183.460938 90.859375 182.859375 91.304688 C 182.695312 91.433594 182.777344 91.695312 182.984375 91.644531 L 183.011719 91.628906 C 183.042969 91.679688 183.070312 91.734375 183.113281 91.742188 C 185.269531 93.003906 189.53125 90.9375 188.992188 88.203125 C 188.933594 87.925781 188.535156 87.882812 188.402344 88.128906 C 188.167969 88.503906 188.171875 88.808594 188.050781 89.253906 C 187.84375 90.023438 187.324219 90.492188 186.65625 90.875 C 185.648438 91.453125 184.679688 91.734375 183.585938 91.4375 C 184.859375 90.910156 185.847656 89.527344 186.296875 88.34375 Z M 145.058594 132.5 C 145.085938 132.726562 145.410156 132.8125 145.460938 132.546875 C 145.546875 132.15625 145.546875 131.742188 145.617188 131.328125 C 145.703125 130.9375 145.8125 130.53125 145.9375 130.152344 C 145.992188 129.949219 145.707031 129.871094 145.613281 130.0625 C 145.363281 130.820312 145.015625 131.707031 145.058594 132.5 Z M 150.46875 126.289062 C 150.332031 126.46875 150.539062 126.65625 150.707031 126.527344 C 151.585938 125.851562 151.679688 124.703125 152.011719 123.726562 C 152.558594 122.117188 153.511719 120.851562 154.734375 119.636719 C 155 119.382812 154.617188 119.019531 154.339844 119.25 C 153.335938 120.0625 152.519531 121.148438 151.984375 122.308594 C 151.394531 123.605469 151.402344 125.171875 150.46875 126.289062 Z M 243.035156 119.070312 C 242.410156 119.292969 241.425781 119.546875 241.03125 120.113281 C 240.984375 120.210938 241.085938 120.324219 241.175781 120.304688 C 241.480469 120.234375 241.734375 120.023438 242.015625 119.859375 C 242.378906 119.652344 242.726562 119.488281 243.105469 119.371094 C 243.300781 119.292969 243.246094 119.019531 243.035156 119.070312 Z M 216.507812 133.828125 C 218.480469 133.625 220.339844 133.105469 222.09375 132.167969 C 224.132812 131.066406 225.6875 128.878906 228.074219 128.566406 C 228.273438 128.554688 228.257812 128.222656 228.070312 128.195312 C 226.472656 127.742188 225.332031 128.976562 224.203125 129.929688 C 221.96875 131.828125 219.332031 132.964844 216.460938 133.445312 C 216.234375 133.472656 216.257812 133.871094 216.507812 133.828125 Z M 215.222656 116.710938 C 215.132812 116.796875 215.195312 116.964844 215.328125 116.957031 C 216.058594 116.914062 216.847656 116.261719 217.433594 115.851562 C 217.601562 115.722656 217.453125 115.46875 217.273438 115.570312 C 216.910156 115.777344 216.550781 115.984375 216.175781 116.164062 C 215.867188 116.34375 215.488281 116.457031 215.222656 116.710938 Z M 184.070312 81.652344 C 185.429688 81.933594 186.175781 82.15625 186.84375 83.378906 C 186.449219 83.46875 186.144531 83.953125 185.933594 84.242188 C 185.585938 84.714844 185.378906 85.246094 185.238281 85.839844 C 185.222656 85.984375 185.410156 86.082031 185.472656 85.945312 C 185.667969 85.457031 185.949219 84.984375 186.285156 84.554688 C 186.484375 84.304688 186.84375 84.097656 187.027344 83.820312 C 187.113281 83.976562 187.1875 84.105469 187.328125 84.230469 C 187.507812 84.367188 187.898438 84.449219 188.054688 84.601562 C 188.125 84.664062 188.199219 84.792969 188.257812 84.894531 C 188.035156 85.160156 187.859375 85.394531 187.523438 85.523438 C 187.300781 85.613281 187.359375 85.957031 187.621094 85.875 C 187.910156 85.777344 188.234375 85.628906 188.472656 85.386719 C 188.742188 86.15625 189.003906 87.03125 189.941406 86.460938 C 190.175781 86.328125 189.984375 85.992188 189.734375 86.101562 C 189.269531 86.300781 189.140625 84.523438 188.929688 84.273438 C 188.667969 83.941406 188.570312 84.066406 188.265625 83.832031 C 187.640625 83.402344 187.636719 83.09375 187.296875 82.503906 C 186.679688 81.421875 185.207031 80.589844 184.003906 81.175781 C 183.808594 81.253906 183.84375 81.609375 184.070312 81.652344 Z M 190.441406 86.789062 C 190.601562 87.074219 190.867188 87.296875 190.996094 87.636719 C 191.054688 87.804688 191.09375 87.988281 191.117188 88.148438 C 191.121094 88.453125 190.898438 88.308594 190.71875 88.171875 C 190.371094 87.925781 189.980469 87.601562 189.585938 87.929688 C 189.421875 88.058594 189.582031 88.34375 189.792969 88.289062 C 190.171875 88.175781 190.453125 88.664062 190.808594 88.804688 C 191.105469 88.90625 191.488281 88.859375 191.644531 88.53125 C 191.949219 87.875 191.375 86.632812 190.699219 86.402344 C 190.496094 86.347656 190.335938 86.609375 190.441406 86.789062 Z M 180.363281 87.128906 C 180.339844 87.140625 180.296875 87.132812 180.230469 87.136719 C 179.359375 86.984375 178.210938 86.480469 177.453125 85.75 C 177.054688 87.863281 176.902344 89.625 177.644531 91.699219 C 177.65625 91.722656 177.660156 91.789062 177.675781 91.816406 C 179.199219 93.335938 180.835938 94.757812 182.558594 96.097656 C 182.316406 95.3125 182.148438 94.484375 182.011719 93.707031 C 181.847656 92.878906 181.636719 92.039062 181.886719 91.214844 C 180.605469 90.238281 179.984375 88.679688 180.363281 87.128906 Z M 196.683594 114.886719 C 196.128906 114.757812 195.859375 115.121094 195.546875 115.46875 C 195.296875 115.75 194.804688 115.550781 194.773438 115.195312 C 194.5 115.078125 194.25 114.878906 193.984375 114.65625 C 193.859375 114.554688 193.6875 114.378906 193.542969 114.359375 C 193.554688 114.386719 193.53125 114.402344 193.542969 114.425781 C 193.625 114.449219 193.671875 114.527344 193.648438 114.605469 C 193.628906 114.992188 193.78125 115.316406 193.957031 115.625 C 194.078125 115.832031 194.21875 116.023438 194.207031 116.238281 C 194.246094 116.25 194.261719 116.273438 194.300781 116.285156 C 195.082031 116.691406 196.089844 116.835938 196.746094 117.382812 C 196.871094 117.480469 196.882812 117.679688 196.796875 117.832031 C 196.957031 117.875 197.105469 117.894531 197.242188 117.953125 C 197.363281 117.984375 197.449219 118.074219 197.519531 118.136719 C 197.984375 118.109375 198.21875 118.761719 197.808594 119.0625 C 197.628906 119.644531 197.289062 120.183594 197.011719 120.714844 C 196.878906 120.964844 196.722656 121.226562 196.605469 121.5 C 196.730469 121.359375 196.980469 121.316406 197.140625 121.535156 C 197.371094 121.878906 198.003906 122.03125 198.394531 122.113281 C 198.582031 122.144531 198.972656 122.226562 199.125 122.070312 C 199.273438 121.917969 199.160156 121.777344 199.140625 121.621094 C 199.132812 121.488281 199.136719 121.378906 199.210938 121.269531 C 199.160156 121.058594 199.320312 120.796875 199.582031 120.78125 C 199.980469 120.761719 200.367188 120.777344 200.742188 120.597656 C 200.9375 120.519531 201.414062 120.214844 201.25 119.929688 C 201.148438 119.75 200.636719 119.632812 200.464844 119.457031 C 200.226562 119.21875 200.199219 118.992188 200.25 118.65625 C 200.25 118.65625 200.25 118.65625 200.261719 118.617188 C 200.246094 118.589844 200.230469 118.566406 200.199219 118.515625 C 200.101562 118.160156 200.066406 117.804688 200.019531 117.421875 C 199.945312 116.8125 199.667969 116.628906 199.140625 116.488281 C 198.75 116.402344 198.386719 116.304688 198.121094 116.078125 C 197.953125 116.144531 197.773438 116.074219 197.671875 115.894531 C 197.449219 115.507812 197.238281 115.015625 196.683594 114.886719 Z M 188.59375 124.722656 C 188.566406 124.738281 188.566406 124.738281 188.59375 124.722656 Z M 188.511719 124.21875 Z M 188.539062 123.726562 C 188.746094 123.4375 188.972656 123.171875 189.210938 122.929688 C 188.796875 123.167969 188.402344 123.429688 188.03125 123.742188 C 188.160156 123.667969 188.359375 123.65625 188.539062 123.726562 Z M 226.464844 100.792969 C 226.277344 102.851562 225.851562 104.976562 224.433594 106.507812 C 226.757812 105.242188 229.394531 104.109375 230.515625 101.585938 C 230.585938 101.40625 230.898438 101.535156 230.828125 101.714844 C 229.980469 104.117188 227.648438 105.484375 225.445312 106.714844 C 225.65625 106.726562 225.898438 106.726562 226.136719 106.726562 C 227.199219 106.667969 228.195312 106.199219 229.242188 106.113281 C 229.265625 106.097656 229.277344 106.054688 229.304688 106.042969 C 231.296875 104.796875 231.945312 102.644531 233.335938 100.890625 C 234.355469 99.625 235.527344 98.441406 236.828125 97.488281 C 234.53125 97.0625 232.371094 97.476562 230.234375 98.527344 C 229.097656 99.113281 227.757812 100.359375 226.464844 100.792969 Z M 227.742188 125.714844 C 227.855469 125.375 228.066406 125.085938 228.390625 124.933594 C 228.53125 124.882812 228.691406 124.863281 228.800781 124.9375 C 228.808594 124.828125 228.859375 124.734375 229.015625 124.710938 C 229.082031 124.707031 229.132812 124.679688 229.199219 124.671875 C 228.773438 124.644531 228.339844 124.550781 227.976562 124.453125 C 227.503906 124.34375 227.035156 124.238281 226.613281 124.101562 C 227.121094 124.566406 227.574219 125.125 227.742188 125.714844 Z M 233.242188 129.097656 C 233.226562 129.070312 233.210938 129.042969 233.210938 129.042969 C 233.242188 129.335938 233.269531 129.625 233.234375 129.921875 C 233.515625 129.933594 233.695312 130.066406 233.828125 130.300781 C 233.980469 130.382812 234.128906 130.46875 234.253906 130.566406 C 233.894531 130.054688 233.5625 129.597656 233.242188 129.097656 Z M 232.347656 130.703125 C 232.324219 130.546875 232.277344 130.402344 232.242188 130.28125 C 232.117188 131.140625 231.875 131.964844 231.527344 132.675781 C 231.851562 132.046875 232.121094 131.378906 232.347656 130.703125 Z M 230.960938 133.722656 C 231.007812 133.625 231.082031 133.515625 231.128906 133.417969 C 231.121094 133.457031 231.09375 133.472656 231.058594 133.527344 C 230.996094 133.597656 230.957031 133.65625 230.867188 133.671875 C 230.90625 133.683594 230.945312 133.695312 230.960938 133.722656 Z M 183.53125 79.871094 C 183.878906 80.121094 183.964844 80.445312 183.917969 80.847656 C 183.859375 81.222656 183.664062 81.542969 183.886719 81.925781 C 184.0625 82.234375 184.417969 82.375 184.644531 82.65625 C 184.816406 82.832031 184.652344 83.199219 184.394531 83.109375 C 184.351562 83.097656 184.339844 83.070312 184.296875 83.058594 C 182.738281 83.746094 181.933594 84.792969 181.25 86.34375 C 180.523438 88.0625 181.007812 89.324219 182.078125 90.59375 C 182.238281 89.507812 182.582031 88.488281 183.140625 87.554688 C 183.25 87.386719 183.496094 87.519531 183.402344 87.710938 C 182.914062 88.710938 182.628906 89.761719 182.503906 90.863281 C 182.507812 90.925781 182.472656 90.984375 182.445312 90.996094 C 182.589844 91.1875 182.457031 91.433594 182.257812 91.445312 C 182.066406 93.265625 183.007812 95.085938 183.460938 96.773438 C 185.003906 97.910156 186.648438 98.988281 188.363281 99.953125 C 188.65625 98.964844 189.117188 97.980469 189.726562 97.015625 C 189.8125 96.867188 190.035156 97.011719 189.949219 97.164062 C 189.328125 98.167969 188.90625 99.164062 188.679688 100.148438 C 188.679688 100.148438 188.679688 100.148438 188.695312 100.171875 C 189.054688 100.378906 188.867188 100.828125 188.550781 100.871094 C 188.414062 101.773438 188.453125 102.671875 188.566406 103.53125 C 188.890625 103.617188 188.945312 104.132812 188.71875 104.332031 C 189.429688 107.484375 191.410156 110.519531 193.0625 113.402344 C 193.257812 113.328125 193.507812 113.285156 193.695312 113.316406 C 193.734375 113.324219 193.816406 113.347656 193.855469 113.359375 C 193.53125 112.3125 193.535156 111.183594 193.753906 110.132812 C 193.808594 109.929688 194.09375 110.007812 194.078125 110.222656 C 193.910156 111.480469 194.132812 112.585938 194.542969 113.71875 C 194.597656 113.753906 194.625 113.808594 194.667969 113.816406 C 194.847656 113.953125 194.992188 114.144531 195.199219 114.265625 C 195.234375 114.210938 195.3125 114.167969 195.363281 114.136719 C 194.644531 111.503906 195.667969 108.21875 197.128906 106.046875 C 197.210938 105.894531 197.460938 106.027344 197.375 106.179688 C 196.660156 107.441406 196.128906 108.839844 195.890625 110.277344 C 195.683594 111.527344 195.828125 112.675781 195.9375 113.878906 C 196.171875 113.8125 196.394531 113.785156 196.609375 113.800781 C 196.511719 112.316406 197.660156 110.734375 198.449219 109.667969 C 198.550781 109.542969 198.78125 109.648438 198.699219 109.796875 C 198.183594 110.574219 197.617188 111.375 197.332031 112.257812 C 197.136719 112.8125 197.128906 113.332031 197.171875 113.886719 C 197.351562 113.957031 197.5 114.042969 197.640625 114.167969 C 198.113281 112.425781 199.070312 110.988281 200.507812 109.855469 C 202.726562 108.105469 206.238281 106.707031 205.738281 103.265625 C 205.714844 103.109375 205.949219 103.042969 205.972656 103.199219 C 206.324219 104.949219 205.488281 106.417969 204.226562 107.621094 C 201.738281 109.96875 198.902344 111.050781 198.039062 114.621094 C 198.199219 114.839844 198.316406 115.046875 198.394531 115.304688 C 198.703125 115.300781 199.039062 115.351562 199.363281 115.4375 C 204.726562 111.0625 212.714844 106.722656 209.582031 98.566406 C 209.488281 98.34375 209.585938 98.152344 209.75 98.023438 C 209.617188 98.03125 209.457031 97.988281 209.394531 97.820312 C 209.363281 97.769531 209.347656 97.742188 209.320312 97.691406 C 209.308594 97.730469 209.269531 97.785156 209.234375 97.839844 C 208.328125 98.769531 207.117188 98.746094 205.9375 98.363281 C 205.136719 98.101562 204.367188 97.65625 203.519531 97.488281 C 201.84375 97.1875 201.011719 98.007812 199.632812 98.589844 C 198.542969 99.078125 197.683594 98.953125 196.683594 98.398438 C 196.597656 98.550781 196.511719 98.703125 196.429688 98.851562 C 196.285156 99.140625 196.15625 99.453125 196.070312 99.777344 C 196.015625 99.980469 195.691406 99.894531 195.746094 99.691406 C 195.820312 99.339844 195.90625 99.015625 196.035156 98.703125 C 196.105469 98.527344 196.175781 98.347656 196.300781 98.207031 C 196.1875 98.136719 196.09375 98.085938 195.984375 98.015625 C 195.578125 98.621094 195.199219 99.214844 194.933594 99.949219 C 194.664062 100.789062 194.496094 101.636719 194.347656 102.507812 C 194.320312 102.695312 193.984375 102.648438 194.011719 102.460938 C 194.167969 100.9375 194.425781 98.941406 195.515625 97.734375 C 193.933594 96.828125 192.601562 96.292969 190.542969 97.0625 C 190.371094 97.125 190.292969 96.863281 190.421875 96.789062 C 191.53125 96.222656 192.742188 96.007812 193.96875 96.292969 C 194.726562 96.476562 195.398438 96.878906 196.035156 97.265625 C 196.152344 97.234375 196.261719 97.308594 196.296875 97.425781 C 197.011719 97.835938 197.757812 98.125 198.628906 97.96875 C 200.273438 97.675781 201.402344 96.480469 203.167969 96.632812 C 205.171875 96.785156 206.835938 98.496094 208.863281 97.371094 C 208.941406 97.328125 209.03125 97.308594 209.113281 97.332031 C 208.078125 95.765625 206.410156 94.945312 204.703125 94.179688 C 203.136719 93.46875 201.347656 92.683594 199.632812 92.433594 C 197.726562 92.160156 196.882812 93.429688 195.320312 94.050781 C 194.8125 94.238281 194.53125 94.230469 194.046875 94.335938 C 193.378906 94.308594 192.679688 94.402344 192.042969 94.664062 C 191.457031 95.136719 190.957031 95.695312 190.550781 96.304688 C 190.40625 96.527344 190.085938 96.332031 190.195312 96.097656 C 190.957031 94.5 191.710938 93.726562 193.507812 93.515625 C 195.875 93.289062 197.226562 91.109375 199.738281 91.484375 C 201.828125 91.789062 203.972656 92.785156 205.859375 93.6875 C 207.730469 94.5625 209.464844 95.554688 210.230469 97.546875 C 210.292969 97.714844 210.230469 97.851562 210.144531 97.9375 C 210.34375 97.925781 210.546875 97.980469 210.636719 98.199219 C 212.203125 101.40625 211.722656 105.171875 209.582031 108.007812 C 209.558594 108.019531 209.546875 108.0625 209.492188 108.089844 C 210.878906 107.398438 212.457031 106.871094 214.058594 106.671875 C 213.136719 97.726562 221.164062 91.242188 229.382812 90.230469 C 229.515625 90.222656 229.636719 90.253906 229.71875 90.34375 C 229.746094 90.328125 229.757812 90.289062 229.78125 90.273438 C 230.1875 89.902344 230.808594 90.503906 230.402344 90.875 C 228.886719 92.289062 227.617188 93.597656 227.070312 95.691406 C 226.6875 97.175781 226.671875 98.757812 226.558594 100.292969 C 229.574219 97.609375 233.585938 95.890625 237.644531 96.882812 C 238.132812 97.015625 237.933594 97.742188 237.4375 97.652344 C 235.355469 99.21875 233.949219 100.949219 232.710938 103.265625 C 232.097656 104.40625 231.511719 105.53125 230.496094 106.214844 C 231.183594 106.332031 231.824219 106.613281 232.449219 106.871094 C 232.859375 107.046875 232.554688 107.769531 232.144531 107.59375 C 231.113281 107.226562 230.21875 106.917969 229.148438 107.019531 C 229.617188 108.5625 229.773438 110.148438 229.613281 111.78125 C 229.601562 111.992188 229.269531 112.011719 229.269531 111.773438 C 229.246094 110.179688 229.039062 108.621094 228.554688 107.121094 C 227.976562 107.246094 227.425781 107.425781 226.84375 107.484375 C 226.199219 107.546875 225.644531 107.421875 225.007812 107.445312 C 224.792969 107.429688 224.609375 107.464844 224.410156 107.476562 C 224.515625 107.898438 224.566406 108.347656 224.671875 108.765625 C 224.828125 109.460938 225.039062 110.128906 225.25 110.792969 C 225.300781 111.003906 224.988281 111.113281 224.886719 110.933594 C 224.378906 109.992188 223.875 108.8125 223.785156 107.699219 C 223.742188 107.6875 223.71875 107.703125 223.675781 107.691406 C 222.910156 107.960938 222.273438 108.464844 221.53125 109.023438 C 221.253906 109.253906 220.871094 108.890625 221.136719 108.636719 C 221.753906 108.042969 222.398438 107.433594 223.191406 107.082031 C 223.320312 107.007812 223.4375 106.976562 223.582031 106.925781 C 226.066406 104.03125 225.507812 100.316406 226.027344 96.800781 C 226.375 94.480469 227.328125 92.738281 228.886719 91.160156 C 220.996094 92.503906 214.679688 98.382812 214.667969 106.664062 C 216.351562 106.554688 218.03125 106.859375 219.421875 107.734375 C 221.101562 106.125 221.558594 104.355469 221.628906 102.027344 C 221.679688 100.320312 222.125 98.832031 222.945312 97.335938 C 223.066406 97.132812 223.371094 97.300781 223.25 97.507812 C 222.601562 98.765625 222.292969 100.140625 222.28125 101.550781 C 222.289062 102.398438 222.414062 103.21875 222.273438 104.050781 C 222.035156 105.660156 221.25 107.101562 220.046875 108.164062 C 220.328125 108.414062 220.605469 108.664062 220.851562 108.96875 C 220.964844 109.109375 220.789062 109.28125 220.664062 109.179688 C 220.300781 108.910156 219.957031 108.664062 219.597656 108.457031 C 219.464844 108.464844 219.328125 108.40625 219.242188 108.316406 C 219.21875 108.332031 219.21875 108.332031 219.191406 108.347656 C 217.171875 109.0625 215.269531 109.980469 213.570312 111.261719 C 213.429688 111.375 213.257812 111.132812 213.398438 111.019531 C 215.027344 109.742188 216.726562 108.703125 218.664062 107.964844 C 215.265625 106.632812 211.84375 108.25 208.359375 109.699219 C 208.257812 109.757812 208.152344 109.75 208.070312 109.726562 C 205.847656 112.0625 202.917969 114.117188 200.242188 115.71875 C 200.351562 115.792969 200.449219 115.839844 200.558594 115.914062 C 201.003906 116.273438 201.15625 116.835938 201.214844 117.417969 C 203.882812 119.207031 209.011719 119.074219 211.800781 117.851562 C 211.945312 117.800781 212.0625 118.007812 211.921875 118.058594 C 209.925781 118.996094 207.839844 119.0625 205.695312 119.023438 C 204.113281 119.007812 202.5625 118.871094 201.238281 118.054688 C 201.238281 118.054688 201.238281 118.054688 201.253906 118.082031 C 202.960938 119.566406 205.007812 120.273438 207.160156 120.921875 C 209.269531 121.558594 212.453125 122.8125 214.542969 121.855469 C 214.671875 121.78125 214.789062 121.988281 214.660156 122.0625 C 212.601562 123.070312 209.78125 122.089844 207.675781 121.582031 C 205.976562 121.1875 204.089844 120.699219 202.523438 119.816406 C 202.566406 120.132812 202.46875 120.496094 202.285156 120.773438 C 202.222656 120.84375 202.160156 120.914062 202.097656 120.984375 C 202.203125 120.992188 202.324219 121.023438 202.382812 121.128906 C 204.429688 123.683594 206.390625 125.910156 208.84375 128.097656 C 210.664062 129.722656 211.890625 131.445312 212.175781 133.917969 C 212.296875 135.082031 212.273438 136.292969 212.070312 137.433594 C 219.015625 140.53125 225.066406 133.234375 229.375 128.746094 C 229.347656 128.695312 229.308594 128.683594 229.277344 128.632812 C 228.582031 128.550781 228.082031 127.980469 227.871094 127.316406 C 227.808594 127.148438 227.785156 126.921875 227.757812 126.695312 C 226.214844 126.933594 224.589844 128.035156 223.269531 128.722656 C 223.089844 128.824219 222.914062 128.515625 223.09375 128.414062 C 224.269531 127.773438 225.367188 127.007812 226.546875 126.433594 C 226.945312 126.238281 227.363281 126.066406 227.777344 126.070312 C 227.796875 125.992188 227.792969 125.925781 227.816406 125.84375 C 227.726562 125.929688 227.609375 125.960938 227.515625 125.914062 C 226.738281 125.570312 226.195312 124.6875 225.589844 124.109375 C 224.832031 123.382812 224.046875 122.90625 223.089844 122.496094 C 222.449219 123.171875 221.699219 123.773438 220.84375 124.367188 C 220.765625 124.410156 220.664062 124.296875 220.726562 124.226562 C 222.003906 123.050781 223.070312 121.925781 223.6875 120.550781 C 222.90625 121.339844 221.371094 121.703125 220.449219 121.890625 C 220.238281 121.941406 220.167969 121.640625 220.378906 121.589844 C 221.398438 121.277344 223.304688 120.835938 223.757812 119.71875 C 223.792969 119.597656 223.910156 119.566406 224.03125 119.597656 C 224.230469 118.871094 224.289062 118.082031 224.1875 117.183594 C 223.910156 114.367188 222.707031 111.910156 221.050781 109.675781 C 220.933594 109.539062 221.179688 109.363281 221.292969 109.503906 C 223.429688 111.800781 224.738281 114.917969 224.808594 118.089844 C 224.847656 119.710938 224.347656 120.988281 223.492188 122.0625 C 224.03125 122.164062 224.519531 122.363281 224.988281 122.640625 C 225.066406 122.597656 225.15625 122.578125 225.269531 122.652344 C 226.722656 123.460938 228.625 123.671875 230.277344 123.507812 C 229.945312 123.289062 229.613281 123.066406 229.179688 122.90625 C 228.824219 122.765625 228.5 122.679688 228.148438 122.539062 C 227.386719 122.226562 226.8125 121.765625 226.53125 120.972656 C 226.480469 120.828125 226.71875 120.761719 226.765625 120.90625 C 227.355469 122.414062 229.308594 122.117188 230.390625 122.929688 C 230.023438 121.636719 227.207031 119.761719 226.613281 118.90625 C 225.777344 117.742188 225.265625 116.496094 224.949219 115.105469 C 224.925781 114.945312 225.160156 114.878906 225.183594 115.039062 C 226.015625 117.980469 227.667969 119.496094 229.980469 121.316406 C 230.621094 121.839844 231.035156 122.324219 230.96875 123.042969 C 230.996094 123.03125 231.007812 122.988281 231.03125 122.972656 C 231.09375 122.902344 231.1875 122.886719 231.28125 122.867188 C 231.375 122.4375 231.605469 122.0625 231.992188 121.84375 C 232.226562 120.816406 230.796875 119.515625 230.554688 118.5625 C 230.351562 117.722656 230.460938 116.839844 230.761719 116.050781 C 230.832031 115.871094 231.113281 115.949219 231.042969 116.125 C 230.714844 117.101562 230.71875 118.125 231.222656 119.066406 C 231.566406 119.726562 232.191406 120.222656 232.445312 120.898438 C 232.550781 121.144531 232.582031 121.4375 232.582031 121.675781 C 232.832031 121.636719 233.085938 121.660156 233.277344 121.753906 C 233.394531 119.808594 233.921875 118.101562 234.601562 116.242188 C 235.027344 115.074219 235.464844 113.867188 235.4375 112.617188 C 235.410156 111.023438 234.640625 110.097656 233.609375 109.011719 C 233.410156 108.785156 233.617188 108.492188 233.886719 108.546875 C 236.007812 108.902344 236.578125 111.621094 236.386719 113.441406 C 236.15625 115.488281 235.304688 117.34375 234.683594 119.308594 C 236.710938 115.441406 239.1875 110.5 244.117188 111.402344 C 244.535156 111.472656 244.886719 111.613281 245.308594 111.75 C 246.636719 112.214844 246.902344 112.375 248.464844 112.296875 C 249.410156 112.269531 250.257812 112.261719 251.15625 112.570312 C 251.332031 112.640625 251.507812 112.710938 251.683594 112.777344 C 251.710938 112.765625 251.738281 112.75 251.738281 112.75 C 251.929688 112.671875 252.046875 112.8125 252.070312 112.96875 C 253.429688 113.730469 254.441406 114.960938 254.832031 116.480469 C 254.890625 116.757812 254.519531 116.832031 254.414062 116.585938 C 253.828125 115.144531 252.820312 114.042969 251.558594 113.398438 C 249.855469 114.066406 248.296875 114.925781 246.898438 116.136719 C 246.761719 116.25 246.550781 116.0625 246.675781 115.925781 C 247.925781 114.761719 249.3125 113.832031 250.851562 113.117188 C 250.109375 112.894531 249.304688 112.808594 248.457031 112.882812 C 246.820312 113.070312 246.035156 112.597656 244.46875 112.195312 C 239.054688 110.75 236.59375 117.5625 234.5 121.261719 C 234.414062 121.410156 234.273438 121.460938 234.125 121.441406 C 234.097656 121.628906 234.082031 121.84375 234.066406 122.054688 C 234.328125 122.214844 234.5 122.457031 234.664062 122.738281 C 234.738281 122.867188 234.820312 123.128906 234.929688 123.203125 C 235.082031 123.289062 235.363281 123.125 235.539062 123.128906 C 235.644531 123.136719 235.75 123.144531 235.859375 123.152344 C 236.851562 121.898438 238.222656 121.007812 239.648438 120.328125 C 239.804688 120.238281 239.949219 120.496094 239.796875 120.585938 C 238.453125 121.285156 237.378906 122.277344 236.292969 123.3125 C 236.609375 123.503906 236.8125 123.800781 236.9375 124.140625 C 237.996094 123.597656 238.898438 122.84375 240.003906 122.382812 C 241.304688 121.839844 242.660156 121.40625 243.992188 120.917969 C 244.136719 120.867188 244.203125 121.105469 244.058594 121.152344 C 242.589844 121.753906 240.957031 122.3125 239.539062 123.058594 C 238.644531 123.535156 237.898438 124.203125 237.003906 124.613281 C 236.996094 124.722656 237 124.785156 236.980469 124.867188 C 237.167969 124.894531 237.34375 124.964844 237.472656 125.132812 C 238.59375 124.28125 240.070312 123.988281 241.523438 123.835938 C 245.082031 123.472656 248.765625 123.277344 251.246094 120.316406 C 251.34375 120.191406 251.515625 120.367188 251.402344 120.464844 C 249.824219 122.429688 247.578125 123.410156 245.117188 123.898438 C 242.5 124.40625 239.800781 124.175781 237.71875 125.742188 C 237.746094 125.96875 237.707031 126.195312 237.652344 126.398438 C 237.476562 127.113281 236.558594 128.015625 235.855469 127.324219 C 235.613281 127.085938 235.738281 126.707031 236.050781 126.59375 C 236.144531 126.578125 236.210938 126.574219 236.261719 126.542969 C 236.273438 126.503906 236.273438 126.503906 236.285156 126.464844 C 236.441406 126.199219 236.589844 125.980469 236.777344 125.769531 C 236.785156 125.664062 236.765625 125.570312 236.726562 125.5625 C 236.613281 125.726562 236.464844 125.882812 236.285156 125.984375 C 235.976562 126.160156 235.558594 125.851562 235.671875 125.515625 C 235.742188 125.335938 235.847656 125.105469 235.945312 124.914062 C 235.765625 124.84375 235.726562 124.59375 235.960938 124.527344 C 235.988281 124.511719 235.988281 124.511719 236.011719 124.496094 C 235.980469 124.378906 235.9375 124.300781 235.785156 124.21875 C 235.484375 124.050781 235.121094 124.257812 234.78125 124.140625 C 234.484375 124.039062 234.257812 123.828125 234.097656 123.542969 C 233.964844 123.3125 233.824219 122.707031 233.519531 122.710938 C 233.347656 122.707031 233.261719 122.621094 233.175781 122.53125 C 233.027344 122.515625 232.867188 122.46875 232.667969 122.480469 C 232.285156 122.53125 231.992188 122.800781 231.933594 123.175781 C 231.925781 123.214844 231.898438 123.230469 231.886719 123.269531 C 231.917969 123.800781 231.457031 124.371094 231.089844 124.6875 C 230.59375 125.074219 229.988281 125.214844 229.359375 125.128906 L 229.316406 125.117188 C 229.332031 125.144531 229.320312 125.1875 229.320312 125.1875 C 229.296875 125.679688 228.972656 126.070312 228.9375 126.605469 C 228.914062 126.921875 228.960938 127.480469 229.175781 127.800781 C 229.578125 127.605469 229.988281 128.019531 230.195312 128.378906 C 230.339844 128.636719 230.40625 128.871094 230.78125 128.863281 C 231.019531 128.863281 231.242188 128.773438 231.464844 128.746094 C 231.324219 127.902344 231.015625 127.125 230.832031 126.269531 C 230.757812 125.902344 231.054688 125.699219 231.332031 125.707031 C 231.171875 125.1875 231.746094 124.753906 232.207031 125.140625 C 232.332031 125.238281 232.445312 125.378906 232.570312 125.476562 C 233.355469 125.710938 234.007812 126.433594 234.660156 126.914062 C 235.328125 127.421875 236.046875 127.898438 236.738281 128.390625 C 236.785156 128.296875 236.875 128.210938 236.996094 128.242188 C 237.265625 128.292969 237.558594 128.332031 237.855469 128.367188 C 240.914062 127.195312 243.734375 127.871094 246.902344 128.859375 C 247.144531 128.925781 247.035156 129.332031 246.800781 129.226562 C 245.273438 128.769531 243.691406 128.339844 242.117188 128.214844 C 241.089844 128.15625 240.152344 128.316406 239.195312 128.558594 C 240.835938 128.847656 242.511719 129.324219 243.703125 130.386719 C 244.765625 131.347656 245.394531 132.804688 246.078125 134.054688 C 246.90625 135.5625 247.761719 137.054688 248.550781 138.550781 C 248.671875 138.757812 248.363281 138.933594 248.242188 138.726562 C 246.832031 136.324219 245.613281 133.363281 243.714844 131.304688 C 242.238281 129.683594 240.273438 129.546875 238.335938 129.085938 C 238.363281 129.136719 238.410156 129.214844 238.410156 129.28125 C 238.410156 129.519531 238.421875 129.71875 238.449219 129.941406 C 240.597656 130.046875 242.285156 131.917969 243.261719 133.683594 C 243.382812 133.886719 243.070312 134.066406 242.953125 133.859375 C 241.925781 132.125 240.441406 130.851562 238.496094 130.496094 C 238.519531 130.960938 238.558594 131.382812 238.636719 131.820312 C 238.703125 131.882812 238.75 131.960938 238.785156 132.078125 C 239.921875 135.800781 241.9375 139.847656 245.796875 141.328125 C 247.15625 141.847656 248.632812 142.097656 250.03125 142.5625 C 252.007812 143.207031 253.960938 144.105469 255.433594 142.613281 C 255.328125 142.605469 255.1875 142.480469 255.230469 142.320312 C 255.480469 140.601562 254.386719 138.695312 253.703125 137.207031 C 253.128906 135.964844 252.511719 134.710938 251.832031 133.523438 C 251.746094 133.371094 252.003906 133.222656 252.089844 133.375 C 253.148438 135.164062 254.167969 136.941406 254.980469 138.835938 C 255.441406 139.9375 256.066406 141.085938 255.746094 142.261719 C 255.90625 142.066406 256.027344 141.859375 256.160156 141.613281 C 256.28125 141.40625 256.636719 141.546875 256.554688 141.761719 C 256.03125 143.296875 254.726562 144.246094 253.085938 144.128906 C 252.054688 144.066406 251.109375 143.550781 250.171875 143.230469 C 248.980469 142.820312 247.730469 142.613281 246.515625 142.285156 C 244.464844 141.75 242.835938 140.699219 241.546875 139.351562 C 241.753906 139.949219 241.894531 140.554688 241.921875 141.257812 C 242.019531 142.980469 241.914062 144.886719 241.058594 146.4375 C 240.371094 147.6875 239.289062 148.546875 238.121094 149.320312 C 238.113281 149.425781 238.117188 149.492188 238.109375 149.597656 C 238.089844 149.917969 237.652344 149.929688 237.59375 149.65625 C 237.363281 149.789062 237.171875 149.933594 236.941406 150.066406 C 236.683594 150.210938 236.5 149.835938 236.71875 149.679688 C 237.011719 149.476562 237.332031 149.257812 237.613281 149.027344 C 237.664062 147.390625 237.71875 145.753906 237.507812 144.128906 C 237.5 143.996094 237.726562 143.96875 237.757812 144.089844 C 237.976562 145.605469 238.140625 147.082031 238.148438 148.585938 C 239.785156 147.203125 240.941406 145.582031 241.03125 143.167969 C 241.128906 140.890625 240.5 139.199219 239.421875 137.253906 C 238.320312 135.214844 236.929688 132.488281 237.417969 130.054688 C 237.273438 130.101562 237.128906 130.082031 237.015625 130.011719 C 236.710938 129.773438 236.53125 129.398438 236.628906 129.035156 C 235.847656 128.628906 235.078125 128.179688 234.332031 127.71875 C 235.039062 128.886719 235.613281 130.132812 235.96875 131.226562 C 236.34375 131.285156 236.65625 131.652344 236.519531 132.074219 C 236.464844 132.210938 236.390625 132.320312 236.300781 132.40625 C 236.265625 132.460938 236.238281 132.476562 236.1875 132.503906 C 236.074219 132.605469 235.914062 132.625 235.765625 132.609375 C 236.210938 134.335938 236.265625 136.460938 237.378906 137.570312 C 237.53125 137.71875 237.292969 137.957031 237.136719 137.808594 C 235.316406 135.945312 235.800781 132.964844 234.246094 131.085938 C 234.226562 131.472656 234.152344 131.824219 234.074219 132.105469 C 234.03125 132.269531 233.988281 132.429688 233.945312 132.59375 C 234.175781 132.699219 234.320312 132.890625 234.335938 133.15625 C 234.332031 133.566406 233.964844 133.882812 233.578125 133.863281 C 233.535156 133.851562 233.496094 133.839844 233.457031 133.832031 C 232.652344 135.660156 231.664062 137.457031 232.339844 139.53125 C 232.402344 139.699219 232.140625 139.78125 232.066406 139.585938 C 231.5625 138.234375 231.664062 136.976562 232.121094 135.621094 C 232.234375 135.28125 232.675781 134.378906 233.046875 133.414062 C 233.03125 133.390625 233.03125 133.390625 233.015625 133.363281 C 232.953125 133.195312 232.992188 132.964844 233.09375 132.839844 C 233.039062 132.804688 232.992188 132.726562 232.988281 132.660156 C 232.949219 132.410156 232.921875 132.1875 232.882812 131.9375 C 232.324219 133.109375 231.523438 134.21875 230.890625 135.265625 C 228.734375 138.792969 228.394531 142.921875 230.085938 146.707031 C 230.191406 146.953125 229.859375 147.144531 229.726562 146.914062 C 228.425781 144.167969 228.089844 141.078125 228.9375 138.132812 C 229.292969 136.902344 229.871094 135.816406 230.460938 134.757812 C 230.394531 134.761719 230.328125 134.765625 230.273438 134.730469 C 230.085938 134.699219 229.972656 134.5625 229.933594 134.378906 C 229.609375 134.050781 229.699219 133.488281 230.152344 133.261719 C 230.332031 133.160156 230.570312 133.15625 230.746094 133.226562 C 230.6875 133.125 230.671875 133.03125 230.726562 132.894531 C 231.25 131.777344 231.609375 130.613281 231.554688 129.378906 C 231.539062 129.351562 231.566406 129.339844 231.550781 129.3125 C 231.105469 129.429688 230.515625 129.359375 230.15625 129.152344 C 230.144531 129.128906 230.117188 129.140625 230.101562 129.117188 C 229.425781 130.324219 228.480469 131.484375 227.382812 132.554688 C 226.691406 134.628906 225.4375 136.507812 224.773438 138.636719 C 224.097656 140.800781 223.859375 143.128906 224.433594 145.328125 C 225.066406 147.804688 226.617188 148.898438 228.285156 150.613281 C 229.132812 151.492188 229.84375 152.796875 231.1875 153.050781 C 232.679688 153.324219 234.152344 151.59375 235.101562 150.742188 C 235.382812 150.511719 235.71875 150.863281 235.496094 151.128906 C 234.214844 152.71875 232.089844 154.382812 229.925781 153.535156 C 228.632812 153.011719 227.996094 151.601562 226.972656 150.714844 C 226.007812 149.863281 225.125 149.105469 224.476562 147.972656 C 222.148438 143.96875 223.109375 138.355469 225.445312 134.25 C 223.96875 135.4375 222.363281 136.457031 220.90625 137.261719 C 218.273438 138.699219 214.71875 139.542969 212.027344 137.835938 C 211.316406 140.773438 209.519531 143.375 206.539062 144.503906 C 206.484375 144.707031 206.195312 144.800781 206.035156 144.585938 L 206.023438 144.558594 C 206.007812 144.535156 205.976562 144.480469 205.964844 144.457031 C 205.34375 143.375 204.984375 142.210938 204.941406 140.9375 C 204.929688 140.738281 205.207031 140.75 205.21875 140.949219 C 205.347656 142.070312 205.714844 143.128906 206.300781 144.089844 C 210.804688 141.851562 212.851562 135.925781 210.527344 131.339844 C 209.4375 129.195312 207.152344 127.835938 205.488281 126.191406 C 204.066406 124.78125 202.671875 123.1875 201.734375 121.429688 C 201.660156 121.300781 201.667969 121.195312 201.703125 121.074219 C 201.316406 121.296875 200.871094 121.414062 200.433594 121.425781 C 200.46875 121.609375 200.480469 121.808594 200.410156 121.984375 C 200.316406 122.242188 200.171875 122.464844 199.953125 122.621094 C 200.960938 123.722656 202.328125 124.375 203.21875 125.574219 C 203.910156 126.480469 204.234375 127.523438 204.296875 128.648438 C 204.308594 128.847656 203.992188 128.894531 203.957031 128.710938 C 203.625 126.640625 202.605469 125.515625 200.953125 124.308594 C 200.355469 123.863281 199.816406 123.457031 199.449219 122.878906 C 199.398438 122.90625 199.359375 122.894531 199.304688 122.925781 C 199.242188 122.929688 199.171875 122.933594 199.105469 122.9375 C 199.605469 126.550781 202.160156 128.746094 203.75 131.871094 C 204.738281 133.835938 205.726562 136.28125 205 138.476562 C 204.945312 138.679688 204.621094 138.589844 204.675781 138.386719 C 205.640625 134.996094 203.132812 131.335938 201.203125 128.746094 C 200.054688 127.21875 198.804688 125.574219 198.628906 123.65625 C 198.273438 125.367188 197.671875 127.421875 198.992188 128.648438 C 199.132812 128.773438 198.929688 128.957031 198.789062 128.832031 C 197.207031 127.445312 197.890625 124.695312 198.238281 122.855469 C 198.117188 122.820312 197.980469 122.761719 197.859375 122.730469 C 197.808594 122.996094 197.664062 123.285156 197.53125 123.53125 C 197.101562 124.394531 196.632812 125.246094 196.859375 126.242188 C 196.910156 126.453125 196.636719 126.507812 196.558594 126.3125 C 196.308594 125.703125 196.378906 125.046875 196.613281 124.4375 C 196.84375 123.824219 197.386719 123.101562 197.335938 122.414062 C 197.210938 122.3125 197.109375 122.199219 197.027344 122.113281 C 195.007812 126.65625 192.765625 131.464844 193.007812 136.488281 C 193.039062 136.539062 193.042969 136.605469 193.019531 136.6875 C 193.074219 137.375 193.152344 138.050781 193.269531 138.734375 C 193.5625 140.140625 194.011719 141.285156 194.710938 142.148438 C 194.367188 140.292969 194.332031 138.433594 194.558594 136.558594 C 194.574219 136.414062 194.789062 136.425781 194.769531 136.574219 C 194.625 138.710938 194.863281 140.796875 195.390625 142.851562 C 195.699219 143.089844 196.03125 143.308594 196.398438 143.472656 C 196.066406 142.773438 196.027344 141.875 196.027344 141.15625 C 196.03125 140.980469 196.242188 140.996094 196.265625 141.15625 C 196.292969 141.617188 196.359375 142.09375 196.476562 142.539062 C 196.589844 142.917969 196.796875 143.277344 196.914062 143.65625 C 197.550781 143.875 198.289062 143.964844 199.125 143.929688 C 200.742188 143.890625 202.457031 143.59375 203.996094 144.25 C 204.214844 144.332031 204.03125 144.605469 203.84375 144.578125 C 201.359375 144.1875 198.765625 144.921875 196.339844 144.328125 C 193.976562 143.734375 192.917969 141.464844 192.382812 139.277344 C 192.28125 138.921875 192.207031 138.554688 192.160156 138.171875 C 190.902344 140.160156 189.347656 141.628906 187.214844 142.921875 C 184.398438 144.636719 181.621094 146.539062 178.699219 148.074219 C 178.550781 148.230469 178.375 148.398438 178.195312 148.570312 C 177.96875 148.769531 177.617188 148.457031 177.855469 148.214844 C 177.894531 148.160156 177.957031 148.089844 178.007812 148.0625 C 178.019531 148.019531 178.054688 147.964844 178.09375 147.910156 C 178.117188 147.894531 178.144531 147.882812 178.171875 147.867188 C 180.316406 145.164062 179.441406 140.46875 181.921875 137.988281 C 180.058594 138.917969 177.980469 139.59375 175.90625 139.140625 C 172.996094 138.484375 172.421875 135.804688 170.117188 134.351562 C 169.910156 134.230469 170.089844 133.890625 170.296875 134.011719 C 172.410156 135.125 173.046875 137.734375 175.503906 138.378906 C 178.246094 139.101562 181.054688 137.730469 183.328125 136.257812 C 187.789062 133.355469 190.007812 129.28125 192.039062 124.523438 C 192.253906 124.058594 192.898438 124.410156 192.820312 124.867188 C 191.835938 129.839844 187.757812 134.433594 183.492188 137.085938 C 183.601562 137.160156 183.691406 137.3125 183.59375 137.4375 C 182.011719 139.578125 180.914062 141.367188 180.332031 143.992188 C 180.097656 145.019531 179.878906 146.066406 179.4375 146.96875 C 181.433594 145.621094 183.585938 144.417969 185.617188 143.121094 C 187.03125 142.242188 188.5 141.398438 189.640625 140.164062 C 190.582031 139.179688 191.257812 137.972656 191.988281 136.800781 C 191.863281 135.023438 192.015625 133.261719 192.382812 131.511719 C 190.105469 135.484375 187.351562 139.21875 184.214844 142.347656 C 184.066406 142.503906 183.839844 142.289062 183.976562 142.109375 C 186.710938 139.175781 188.960938 135.933594 190.945312 132.472656 C 191.867188 130.847656 192.714844 129.164062 193.523438 127.472656 C 194.097656 125.84375 194.804688 124.273438 195.53125 122.730469 C 195.488281 122.652344 195.441406 122.574219 195.449219 122.46875 C 195.433594 122.441406 195.460938 122.429688 195.472656 122.386719 L 195.457031 122.363281 C 195.4375 122.269531 195.429688 122.136719 195.480469 122.039062 C 195.476562 121.976562 195.472656 121.910156 195.507812 121.851562 C 195.753906 121.265625 195.984375 120.65625 196.207031 120.085938 C 195.953125 120.300781 195.699219 120.511719 195.464844 120.820312 C 194.945312 121.527344 194.589844 122.34375 194.289062 123.132812 C 194.5 123.320312 194.585938 123.648438 194.484375 123.945312 C 194.335938 124.40625 193.789062 124.652344 193.363281 124.382812 C 192.894531 124.101562 192.949219 123.421875 193.386719 123.171875 C 193.4375 123.140625 193.464844 123.128906 193.53125 123.125 C 193.738281 122.285156 194.085938 121.164062 194.617188 120.242188 C 194.253906 120.382812 193.90625 120.550781 193.554688 120.714844 C 190.898438 122.648438 190.84375 126.441406 188.164062 128.390625 C 187.996094 128.519531 187.753906 128.214844 187.917969 128.085938 C 189.816406 126.621094 190.308594 123.773438 191.699219 121.777344 C 190.777344 122.375 189.949219 123.089844 189.222656 123.847656 C 189.375 124.171875 189.320312 124.613281 188.941406 124.796875 C 188.4375 125.050781 187.785156 124.742188 187.648438 124.203125 C 187.609375 124.019531 187.652344 123.859375 187.738281 123.707031 C 187.6875 123.738281 187.675781 123.777344 187.625 123.804688 C 186.277344 125.160156 186.007812 127.195312 184.921875 128.707031 C 183.132812 131.203125 180.398438 132.703125 177.601562 133.792969 C 177.378906 133.886719 177.304688 133.515625 177.5 133.4375 C 179.554688 132.605469 181.574219 131.585938 183.1875 130.042969 C 184.617188 128.710938 185.210938 127.242188 185.949219 125.484375 C 186.832031 123.441406 188.605469 122.113281 190.632812 121.292969 C 191.375 120.734375 192.15625 120.25 193.007812 119.761719 C 193.085938 119.71875 193.136719 119.6875 193.214844 119.644531 C 192.589844 119.628906 191.949219 119.585938 191.332031 119.527344 C 191.390625 119.628906 191.332031 119.765625 191.214844 119.800781 C 190.085938 120.035156 188.976562 120.191406 188.09375 121.039062 C 187.539062 121.566406 187.191406 122.277344 186.707031 122.859375 C 185.933594 123.785156 185.050781 124.394531 183.898438 124.710938 C 183.660156 124.777344 183.601562 124.4375 183.796875 124.355469 C 185.925781 123.652344 186.410156 121.867188 187.890625 120.507812 C 188.332031 120.082031 188.835938 119.828125 189.398438 119.675781 C 189.355469 119.597656 189.324219 119.546875 189.308594 119.457031 C 189.230469 119.019531 189.515625 118.683594 189.882812 118.546875 C 190.074219 118.46875 190.28125 118.589844 190.398438 118.730469 C 191.890625 118.589844 193.339844 118.546875 194.804688 118.355469 C 193.378906 118.078125 191.96875 117.589844 190.808594 116.816406 C 190.769531 116.871094 190.71875 116.902344 190.628906 116.921875 C 187.886719 116.917969 185.570312 115.921875 183.125 114.824219 C 182.976562 114.738281 183.082031 114.507812 183.242188 114.550781 C 184.371094 114.964844 185.515625 115.40625 186.667969 115.804688 C 187.519531 116.101562 188.40625 116.210938 189.273438 116.292969 C 189.261719 116.265625 189.230469 116.214844 189.242188 116.175781 C 189.175781 115.941406 189.242188 115.695312 189.375 115.515625 C 188.457031 114.984375 187.546875 114.410156 186.582031 113.867188 C 184.453125 112.660156 181.210938 112.914062 179.867188 110.570312 C 179.792969 110.441406 180 110.320312 180.074219 110.449219 C 181.140625 112.199219 182.984375 112.066406 184.675781 112.566406 C 185.621094 112.847656 186.523438 113.285156 187.390625 113.78125 C 188.257812 114.277344 189.105469 114.746094 189.984375 115.203125 C 190.132812 115.222656 190.269531 115.277344 190.367188 115.394531 L 190.382812 115.417969 C 191.722656 116.085938 193.0625 116.6875 194.539062 117.175781 C 194.578125 117.1875 194.644531 117.183594 194.683594 117.195312 C 194.4375 117.0625 194.175781 116.902344 193.972656 116.78125 C 193.390625 116.429688 192.878906 116.074219 192.414062 115.621094 C 192.472656 115.726562 192.523438 115.867188 192.582031 115.972656 C 192.6875 116.21875 192.34375 116.449219 192.195312 116.191406 C 190.976562 113.949219 189.078125 113.085938 187.226562 111.585938 C 186.460938 110.964844 186.074219 110.292969 186.085938 109.296875 C 186.089844 109.121094 186.34375 109.148438 186.324219 109.296875 C 186.371094 111.289062 188.859375 111.984375 190.167969 113.011719 C 190.558594 113.335938 190.933594 113.632812 191.273438 113.984375 C 191.308594 113.929688 191.34375 113.875 191.398438 113.84375 C 191.828125 113.460938 192.417969 113.773438 192.421875 114.320312 C 192.429688 114.449219 192.355469 114.5625 192.269531 114.644531 C 192.613281 114.894531 193 115.148438 193.375 115.378906 C 193.316406 115.105469 193.289062 114.8125 193.3125 114.558594 C 193.171875 114.609375 192.996094 114.605469 192.867188 114.441406 C 190.453125 111.480469 188.519531 107.867188 188.085938 104.183594 C 186.929688 104.261719 185.847656 103.925781 184.710938 103.550781 C 182.484375 102.773438 181.046875 102.539062 178.941406 103.882812 C 177.734375 104.640625 176.601562 105.292969 175.140625 105.070312 C 174.320312 104.957031 173.570312 104.601562 172.8125 104.351562 C 173.515625 105.28125 174.277344 106.074219 175.273438 106.738281 C 175.425781 106.820312 175.292969 107.070312 175.140625 106.984375 C 173.957031 106.292969 172.851562 105.320312 172.148438 104.148438 C 171.5 103.972656 170.84375 103.90625 170.136719 104.105469 C 169.835938 104.175781 169.730469 103.757812 170.019531 103.660156 C 171.332031 103.144531 172.476562 103.652344 173.78125 104.070312 C 174.945312 104.429688 175.953125 104.636719 177.132812 104.0625 C 178.128906 103.59375 178.863281 102.730469 179.878906 102.285156 C 182.679688 101.023438 185.230469 103.324219 188.019531 103.296875 C 188.03125 103.253906 188.015625 103.230469 188.003906 103.203125 C 187.894531 103.195312 187.785156 103.121094 187.726562 103.019531 C 185.941406 99.90625 182.546875 99.421875 179.261719 99.421875 C 175.84375 99.429688 172.472656 100.476562 170.285156 103.234375 C 170.125 103.429688 169.820312 103.191406 169.941406 102.988281 C 172.140625 99.535156 176.011719 98.410156 179.953125 98.480469 C 182.9375 98.546875 186.390625 99.132812 188.066406 101.765625 C 188.097656 101.335938 188.167969 100.921875 188.261719 100.488281 C 185.105469 98.742188 182.136719 96.613281 179.472656 94.171875 C 178.585938 93.824219 177.746094 93.550781 176.792969 93.621094 C 175.839844 93.6875 174.972656 94.082031 174.003906 93.953125 C 173.75 93.925781 173.757812 93.582031 173.996094 93.582031 C 175.152344 93.5 176.214844 93.027344 177.359375 93.058594 C 177.707031 93.0625 178.066406 93.09375 178.417969 93.167969 C 175.753906 90.554688 173.378906 87.605469 171.417969 84.421875 C 171.316406 84.242188 171.589844 84.121094 171.675781 84.273438 C 173.253906 86.550781 174.945312 88.660156 176.824219 90.628906 C 176.445312 88.894531 176.453125 86.871094 177.242188 85.324219 C 177.269531 85.3125 177.253906 85.285156 177.277344 85.269531 C 177.066406 85.015625 176.890625 84.773438 176.785156 84.527344 C 176.304688 83.332031 176.757812 81.429688 177.523438 80.441406 C 177.6875 80.246094 178.019531 80.46875 177.9375 80.683594 C 177.578125 81.609375 177.097656 82.742188 177.152344 83.734375 C 177.160156 84.105469 177.324219 84.457031 177.554688 84.734375 L 177.566406 84.695312 C 177.949219 83.515625 179.273438 82.65625 180.332031 82.117188 C 180.511719 82.015625 180.675781 82.296875 180.496094 82.398438 C 179.929688 82.726562 179.429688 83.113281 179.019531 83.589844 C 178.644531 84.007812 178.355469 84.515625 177.964844 84.910156 C 177.902344 84.980469 177.835938 84.984375 177.753906 84.964844 C 177.824219 85.027344 177.910156 85.113281 177.980469 85.175781 C 178.300781 84.957031 178.78125 85.023438 179.121094 84.898438 C 179.578125 84.738281 179.949219 84.492188 180.332031 84.203125 C 180.445312 84.105469 180.613281 84.28125 180.554688 84.417969 C 180.277344 84.886719 179.84375 85.203125 179.335938 85.390625 C 179.113281 85.484375 178.828125 85.578125 178.535156 85.609375 C 179.160156 86.039062 179.878906 86.34375 180.4375 86.539062 C 180.476562 86.550781 180.507812 86.601562 180.546875 86.613281 C 180.558594 86.570312 180.558594 86.570312 180.570312 86.53125 C 181.207031 84.660156 182.234375 83.285156 184.074219 82.609375 C 183.78125 82.398438 183.496094 82.082031 183.386719 81.769531 C 183.292969 81.546875 183.292969 81.308594 183.332031 81.082031 C 183.394531 80.773438 183.703125 80.289062 183.417969 79.972656 C 183.117188 80.042969 183.335938 79.710938 183.53125 79.871094 Z M 180.40625 78.722656 C 179.832031 79.15625 179.246094 79.625 178.703125 80.109375 C 178.5625 80.222656 178.75 80.492188 178.933594 80.390625 C 179.625 79.921875 180.300781 79.433594 180.992188 78.96875 C 181.425781 78.652344 181.972656 78.40625 182.4375 78.859375 C 182.578125 78.984375 182.652344 79.113281 182.777344 79.210938 C 182.277344 79.359375 181.84375 79.675781 181.4375 79.980469 C 181.050781 80.265625 180.671875 80.554688 180.386719 80.957031 C 180.289062 81.082031 180.46875 81.21875 180.570312 81.160156 C 181.039062 80.960938 181.417969 80.605469 181.882812 80.339844 C 182.28125 80.078125 182.695312 79.90625 183.0625 79.59375 C 183.152344 79.507812 183.132812 79.417969 183.117188 79.324219 C 183.191406 79.28125 183.230469 79.226562 183.210938 79.132812 C 183.089844 78.449219 182.304688 77.910156 181.617188 78.027344 C 181.144531 78.09375 180.765625 78.449219 180.40625 78.722656 Z M 162.804688 141.007812 C 163.199219 142.113281 163.175781 143.085938 162.984375 144.1875 C 164.4375 142.601562 166.171875 141.265625 167.179688 139.320312 C 168.308594 137.167969 168.179688 134.917969 167.507812 132.667969 C 166.992188 132.964844 166.457031 133.167969 165.890625 133.25 C 166.269531 135.941406 165.636719 138.664062 164.417969 141.074219 C 164.285156 141.320312 163.929688 141.117188 164.0625 140.867188 C 165.132812 138.441406 165.378906 135.941406 165.21875 133.332031 C 164.714844 133.347656 164.203125 133.296875 163.734375 133.191406 C 163.707031 133.203125 163.683594 133.21875 163.65625 133.234375 C 163.433594 133.328125 163.253906 133.429688 163.03125 133.523438 C 163.066406 133.640625 163.035156 133.761719 162.933594 133.886719 C 160.84375 136.214844 161.894531 138.519531 162.804688 141.007812 Z M 167.472656 132.246094 C 167.480469 132.203125 167.480469 132.203125 167.492188 132.164062 C 166.644531 131.042969 166.253906 129.761719 166.550781 128.015625 C 166.875 126.1875 167.558594 124.394531 168.742188 122.996094 C 167.617188 121.214844 166.109375 121.085938 164.410156 120.214844 C 163.410156 119.726562 162.609375 118.921875 162.007812 118 C 161.78125 118.199219 161.484375 118.332031 161.273438 118.386719 C 162.492188 119.195312 163.519531 120.453125 164.289062 121.617188 C 164.378906 121.773438 164.160156 121.929688 164.046875 121.789062 C 163.464844 121.132812 162.855469 120.488281 162.210938 119.902344 C 161.707031 119.4375 161.128906 119.085938 160.609375 118.664062 C 160.53125 118.707031 160.457031 118.75 160.378906 118.796875 C 160.378906 118.796875 160.378906 118.796875 160.351562 118.8125 C 160.445312 118.792969 160.511719 118.789062 160.570312 118.890625 C 161.441406 119.933594 161.691406 121.085938 161.941406 122.417969 C 162.375 124.664062 163.121094 126.390625 164.820312 127.980469 C 164.976562 128.132812 164.738281 128.371094 164.582031 128.222656 C 163.492188 127.273438 162.632812 126.191406 162.089844 124.828125 C 161.304688 122.917969 161.324219 120.921875 160.171875 119.152344 C 160.128906 119.078125 160.136719 118.96875 160.171875 118.914062 C 160.148438 118.929688 160.148438 118.929688 160.121094 118.945312 C 159.765625 119.21875 159.40625 119.488281 159.007812 119.683594 C 160.328125 121.457031 159.707031 124.3125 159.691406 126.375 C 159.664062 131.109375 163.007812 133.777344 167.472656 132.246094 Z M 157.34375 120.367188 C 157.589844 123.371094 156.941406 126.480469 156.140625 129.433594 C 156.375 128.652344 156.632812 127.851562 156.867188 127.066406 C 157.527344 124.808594 158.222656 122.5625 157.34375 120.367188 Z M 155.757812 127.875 C 155.710938 128.449219 155.621094 129.011719 155.574219 129.585938 C 156.191406 126.601562 156.757812 123.644531 156.820312 120.527344 C 155.859375 122.617188 155.988281 125.828125 155.757812 127.875 Z M 156.40625 118.851562 C 156.457031 118.820312 156.535156 118.777344 156.585938 118.746094 C 156.84375 118.597656 157.105469 118.757812 157.238281 118.988281 C 157.332031 118.96875 157.449219 119.003906 157.511719 119.105469 C 157.59375 119.195312 157.640625 119.273438 157.699219 119.375 C 157.726562 119.359375 157.75 119.347656 157.816406 119.339844 C 158.535156 119.339844 158.957031 119.0625 159.414062 118.664062 C 159.316406 118.550781 159.242188 118.421875 159.191406 118.277344 C 159.082031 117.964844 158.984375 117.679688 158.90625 117.417969 C 158.800781 117.714844 158.589844 117.941406 158.265625 118.09375 C 158.015625 118.199219 157.753906 118.214844 157.472656 118.203125 C 157.359375 118.304688 157.210938 118.285156 157.101562 118.210938 L 157.074219 118.226562 C 156.503906 118.246094 156.066406 118.496094 155.628906 118.75 C 155.707031 118.769531 155.816406 118.777344 155.9375 118.8125 C 156.054688 118.777344 156.242188 118.808594 156.40625 118.851562 Z M 140.773438 124.25 C 140.457031 124.46875 140.121094 124.660156 139.800781 124.878906 L 139.789062 124.917969 C 139.390625 126.070312 138.605469 127.035156 138.21875 128.214844 C 137.789062 129.554688 137.894531 130.691406 137.996094 132.066406 C 138.011719 132.332031 137.640625 132.339844 137.574219 132.105469 C 137.15625 130.839844 137.183594 129.457031 137.527344 128.199219 C 137.746094 127.390625 138.089844 126.4375 138.578125 125.613281 C 138.164062 125.847656 137.769531 126.109375 137.355469 126.347656 C 136.5625 129.984375 135.09375 133.390625 137.5 136.628906 C 137.378906 134.03125 140.871094 132.542969 140.195312 129.75 C 140.148438 129.605469 140.21875 129.496094 140.308594 129.410156 C 139.035156 128.324219 139.824219 125.996094 140.773438 124.25 Z M 132.648438 129.421875 C 132.632812 129.394531 132.632812 129.394531 132.617188 129.371094 C 132.605469 129.410156 132.597656 129.453125 132.585938 129.492188 C 132.027344 130.429688 131.992188 131.269531 131.839844 132.3125 C 131.707031 133.277344 131.480469 134.195312 131.160156 135.128906 C 131.09375 135.375 130.703125 135.289062 130.796875 135.03125 C 131.113281 133.792969 131.304688 132.515625 131.339844 131.199219 C 131.34375 131.027344 131.34375 130.851562 131.375 130.664062 C 130.136719 133.699219 128.597656 137.765625 129.984375 140.664062 C 129.90625 139.269531 130.808594 138.035156 131.5625 136.851562 C 133.167969 134.390625 134.332031 132.183594 132.648438 129.421875 Z M 124.261719 135.21875 C 124.25 135.195312 124.25 135.195312 124.261719 135.21875 C 124.109375 136.027344 123.847656 136.824219 123.734375 137.644531 C 123.605469 138.671875 123.625 139.722656 123.671875 140.757812 C 123.691406 141.089844 123.148438 141.160156 123.089844 140.816406 C 122.933594 139.710938 122.9375 138.578125 123.070312 137.441406 C 123.144531 136.851562 123.214844 136.195312 123.355469 135.605469 C 123.328125 135.617188 123.300781 135.632812 123.292969 135.675781 C 121.59375 138.5625 121.664062 141.976562 122.796875 145.023438 C 122.910156 144.203125 123.363281 143.5 123.882812 142.621094 C 125.3125 140.332031 126.480469 137.472656 124.261719 135.21875 Z M 118.679688 140.472656 C 118.65625 140.484375 118.65625 140.484375 118.628906 140.5 C 118.011719 142.050781 116.933594 143.457031 115.625 144.515625 C 115.40625 144.671875 115.113281 144.398438 115.316406 144.214844 C 116.496094 143.230469 117.363281 142.117188 118.03125 140.773438 C 116.441406 141.582031 115.195312 142.8125 114.175781 144.320312 C 113.660156 145.09375 113.226562 145.890625 112.695312 146.636719 C 113.925781 146.035156 115.171875 145.457031 116.296875 144.675781 C 117.875 143.601562 118.253906 142.117188 118.679688 140.472656 Z M 122.703125 134.472656 C 122.109375 134.503906 121.484375 134.554688 120.898438 134.546875 C 119.96875 134.535156 118.933594 134.339844 118.035156 134.683594 C 117.839844 134.761719 117.726562 134.449219 117.910156 134.347656 C 118.632812 134 119.398438 134.074219 120.179688 134.070312 C 121.3125 134.074219 122.425781 133.980469 123.53125 133.824219 C 123.664062 133.820312 123.761719 133.867188 123.792969 133.917969 C 123.792969 133.917969 123.792969 133.917969 123.816406 133.902344 C 123.945312 133.828125 124.066406 133.863281 124.136719 133.921875 C 124.199219 133.855469 124.25 133.824219 124.3125 133.753906 C 122.445312 132.945312 120.679688 132.3125 118.597656 132.445312 C 116.320312 132.589844 114.359375 133.644531 112.347656 134.558594 C 113.960938 135.105469 115.351562 135.914062 117.136719 135.984375 C 119.175781 136.082031 120.957031 135.304688 122.703125 134.472656 Z M 131.507812 128.570312 C 131.613281 128.511719 131.714844 128.453125 131.804688 128.367188 C 131.253906 128.304688 130.6875 128.152344 130.230469 128.070312 C 128.738281 127.796875 127.367188 127.316406 125.988281 126.703125 C 125.8125 126.636719 125.929688 126.363281 126.105469 126.433594 C 127.246094 126.804688 128.421875 127.125 129.59375 127.375 C 130.722656 127.617188 131.8125 127.609375 132.921875 127.691406 C 133.101562 127.589844 133.285156 127.484375 133.449219 127.355469 C 131.035156 126.070312 128.796875 125.027344 125.964844 125.589844 C 124.425781 125.890625 122.992188 126.609375 121.582031 126.121094 C 122.84375 127.550781 125.015625 127.8125 126.847656 128.199219 C 128.445312 128.480469 129.953125 128.605469 131.507812 128.570312 Z M 152.835938 117.101562 C 151 117.125 149.164062 116.671875 147.324219 116.566406 C 145.628906 116.472656 143.9375 116.386719 142.226562 116.269531 C 145.773438 117.144531 149.28125 118.246094 152.835938 117.101562 Z M 146.179688 115.40625 C 144.257812 115.515625 142.375 115.808594 140.433594 115.828125 C 142.722656 115.882812 145.042969 115.988281 147.339844 116.113281 C 149.417969 116.21875 151.605469 116.746094 153.667969 116.585938 C 153.800781 116.578125 153.871094 116.640625 153.890625 116.734375 C 154.050781 116.710938 154.1875 116.769531 154.285156 116.886719 C 154.253906 116.765625 154.285156 116.644531 154.445312 116.621094 C 155.660156 116.234375 155.601562 114.523438 156.917969 114.246094 C 158.03125 113.984375 159.125 114.757812 160.234375 114.601562 C 160.183594 114.394531 160.117188 114.15625 160.015625 113.976562 C 159.777344 113.566406 159.34375 113.402344 159.09375 113.03125 L 159.082031 113.007812 C 159.054688 113.023438 159.03125 113.035156 159.019531 113.078125 C 158.929688 113.160156 158.769531 113.117188 158.671875 113.070312 C 158.636719 113.125 158.613281 113.207031 158.578125 113.261719 C 158.492188 113.414062 158.261719 113.308594 158.304688 113.144531 C 159.136719 110.71875 159.089844 108.660156 158.679688 106.15625 C 158.40625 104.601562 158.84375 103.632812 159.179688 102.3125 C 157.03125 105.664062 157.121094 109.171875 157.992188 113.082031 C 158.066406 113.382812 157.613281 113.609375 157.460938 113.285156 C 157.445312 113.261719 157.429688 113.234375 157.429688 113.234375 C 157.3125 113.269531 157.164062 113.25 157.027344 113.125 C 156.902344 113.023438 156.816406 112.9375 156.714844 112.824219 C 156.484375 112.957031 156.332031 113.109375 156.238281 113.300781 C 156.300781 113.472656 156.347656 113.617188 156.386719 113.800781 C 156.421875 113.984375 156.164062 114.128906 156.046875 113.925781 C 156.03125 113.898438 156.015625 113.875 155.988281 113.820312 C 155.964844 113.902344 155.902344 113.972656 155.867188 114.027344 C 155.945312 114.222656 155.757812 114.433594 155.554688 114.378906 C 155.125 114.761719 154.574219 114.941406 154.367188 115.535156 C 154.445312 115.730469 154.390625 115.933594 154.238281 116.023438 C 154.238281 116.261719 154.011719 116.527344 153.742188 116.476562 C 151.164062 115.800781 148.820312 115.230469 146.179688 115.40625 Z M 159.8125 101.265625 C 159.75 101.335938 159.679688 101.445312 159.628906 101.542969 C 159.628906 101.542969 159.644531 101.566406 159.617188 101.582031 C 159.613281 101.691406 159.589844 101.769531 159.566406 101.851562 C 159.648438 101.632812 159.71875 101.457031 159.8125 101.265625 Z M 159.5625 105.71875 C 159.4375 104.730469 159.300781 103.476562 159.464844 102.386719 C 159.253906 103.09375 158.902344 103.738281 158.851562 104.484375 C 158.785156 105.683594 159.265625 106.878906 159.375 108.082031 C 159.523438 109.539062 159.367188 110.996094 158.871094 112.339844 C 159.722656 111.203125 160.460938 110.335938 160.21875 108.660156 C 160.070312 107.683594 159.699219 106.738281 159.5625 105.71875 Z M 163.640625 108.238281 C 162.40625 109.734375 161.175781 111.226562 159.875 112.65625 C 160.214844 112.835938 160.515625 113.175781 160.691406 113.484375 C 160.691406 113.484375 160.691406 113.484375 160.707031 113.511719 C 161.226562 112.871094 162.015625 112.453125 162.738281 112.039062 C 164.101562 111.257812 165.46875 110.476562 166.824219 109.730469 C 167.003906 109.628906 167.167969 109.914062 166.984375 110.015625 C 164.917969 111.304688 162.648438 112.363281 160.894531 114.019531 C 160.964844 114.324219 161.007812 114.636719 161.054688 114.957031 C 162.117188 114.003906 163.519531 113.40625 164.820312 112.867188 C 164.988281 112.800781 165.121094 113.035156 164.964844 113.121094 C 163.605469 113.734375 162.429688 114.609375 161.210938 115.410156 C 161.320312 115.65625 161.519531 115.886719 161.820312 116.054688 L 161.847656 116.039062 C 163.589844 115.621094 165.523438 114.992188 167.339844 115.113281 C 168.554688 115.203125 169.605469 115.664062 170.835938 115.300781 C 171.761719 115.007812 172.585938 114.46875 173.375 113.878906 C 172.304688 113.023438 171.25 112.019531 170.46875 110.894531 C 169.675781 111.246094 168.941406 111.632812 168.175781 112.035156 C 168.023438 112.125 167.863281 111.90625 168.003906 111.792969 C 168.652344 111.25 169.425781 110.808594 170.191406 110.472656 C 169.140625 108.816406 168.597656 106.972656 169.058594 105.03125 C 166.535156 104.628906 165.058594 106.535156 163.640625 108.238281 Z M 157.628906 117.464844 C 158.039062 117.402344 158.375 117.207031 158.332031 116.71875 L 158.34375 116.679688 C 157.726562 116.140625 157.390625 115.550781 157.648438 114.75 C 156.835938 114.703125 156.433594 115.140625 156.050781 115.667969 C 156.082031 115.71875 156.097656 115.746094 156.101562 115.808594 C 156.128906 116.339844 156.386719 116.671875 156.863281 116.84375 C 157.054688 116.9375 157.257812 116.992188 157.4375 117.128906 C 157.523438 117.21875 157.597656 117.347656 157.628906 117.464844 Z M 154.738281 118.09375 C 154.859375 118.128906 154.988281 118.226562 154.996094 118.359375 C 155.316406 117.96875 155.796875 117.730469 156.292969 117.582031 C 156.4375 117.53125 156.609375 117.535156 156.769531 117.515625 C 156.542969 117.300781 156.15625 117.042969 156.042969 116.902344 C 155.84375 116.675781 155.761719 116.414062 155.707031 116.136719 C 155.433594 116.5 155.121094 116.847656 154.664062 117.007812 C 154.695312 117.058594 154.699219 117.125 154.703125 117.191406 C 154.601562 117.558594 154.632812 117.847656 154.738281 118.09375 Z M 163.398438 116.65625 C 163.28125 116.691406 163.195312 116.601562 163.148438 116.523438 C 162.742188 116.585938 162.308594 116.664062 161.882812 116.703125 C 161.75 116.710938 161.640625 116.636719 161.605469 116.519531 C 161.019531 116.445312 160.671875 115.960938 160.453125 115.402344 C 160.4375 115.375 160.4375 115.375 160.421875 115.351562 C 159.511719 115.429688 158.871094 114.972656 158.050781 114.792969 C 157.769531 115.914062 158.679688 116.007812 159.257812 116.601562 C 159.640625 117.03125 159.625 117.65625 159.953125 118.117188 C 159.980469 118.101562 160.007812 118.085938 160.03125 118.070312 C 160.082031 117.976562 160.210938 117.902344 160.304688 117.949219 C 160.761719 117.789062 161.371094 117.78125 161.617188 117.4375 C 161.605469 117.410156 161.617188 117.371094 161.617188 117.371094 C 161.601562 117.34375 161.558594 117.332031 161.546875 117.308594 C 161.261719 116.992188 161.714844 116.527344 162.023438 116.828125 C 162.195312 117.003906 162.347656 117.152344 162.503906 117.304688 C 164.410156 118.125 166.671875 117.890625 168.726562 118.011719 C 170.316406 118.09375 171.96875 118.171875 173.539062 118.402344 C 173.789062 118.363281 174.054688 118.347656 174.292969 118.347656 C 170.746094 117.234375 167.296875 115.753906 163.398438 116.65625 Z M 171.320312 118.714844 C 169.902344 118.570312 168.445312 118.414062 167.03125 118.335938 C 165.789062 118.261719 164.605469 118.222656 163.441406 117.929688 C 165.644531 119.265625 168.449219 119.199219 171.019531 118.785156 C 171.121094 118.726562 171.230469 118.734375 171.320312 118.714844 Z M 167.8125 131.945312 L 167.828125 131.972656 C 167.851562 131.957031 167.867188 131.980469 167.894531 131.96875 C 167.867188 131.980469 167.851562 131.957031 167.8125 131.945312 Z M 155.203125 143.753906 C 154.3125 145.121094 152.953125 146.277344 151.703125 147.199219 C 151.535156 147.328125 151.347656 147.058594 151.472656 146.917969 C 152.496094 145.957031 153.632812 144.894531 154.40625 143.734375 C 155.253906 142.460938 155.25 141.265625 155.238281 139.871094 C 152.652344 141.214844 150.59375 142.875 149.777344 145.808594 C 149.363281 147.238281 149.367188 148.675781 148.773438 149.972656 C 150.511719 148.703125 152.394531 147.453125 153.867188 145.957031 C 154.601562 145.265625 154.996094 144.523438 155.203125 143.753906 Z M 137.269531 121.539062 C 137.785156 121.484375 138.351562 121.398438 138.910156 121.351562 C 136.910156 120.617188 134.972656 120.222656 132.828125 120.597656 C 132.617188 120.648438 132.53125 120.320312 132.742188 120.269531 C 134.753906 119.835938 136.964844 119.867188 138.882812 120.648438 C 137.480469 119.640625 135.949219 118.875 134.171875 118.527344 C 132.292969 118.167969 130.335938 118.640625 128.5 118.183594 C 129.332031 119.933594 130.417969 120.816406 132.433594 121.164062 C 134.0625 121.496094 135.640625 121.6875 137.269531 121.539062 Z M 139.425781 121.296875 C 139.515625 121.277344 139.625 121.285156 139.691406 121.28125 C 139.621094 121.21875 139.550781 121.15625 139.492188 121.121094 C 139.484375 121.160156 139.460938 121.242188 139.425781 121.296875 Z M 162.847656 145.085938 C 162.648438 145.269531 162.382812 145.046875 162.460938 144.828125 C 162.449219 144.804688 162.417969 144.75 162.429688 144.710938 C 162.683594 142.171875 161.214844 140.378906 160.867188 137.980469 C 160.691406 136.78125 160.847656 135.5625 161.402344 134.558594 C 159.414062 135.871094 157.648438 137.566406 155.886719 139.089844 C 156.007812 139.121094 156.132812 139.222656 156.179688 139.363281 C 158.097656 145.039062 152.300781 148.121094 148.417969 150.722656 C 148.367188 150.820312 148.28125 150.90625 148.207031 151.015625 C 148.007812 151.265625 147.617188 150.941406 147.777344 150.679688 C 149.269531 148.628906 148.671875 145.617188 149.984375 143.363281 C 151.085938 141.464844 152.957031 139.707031 155.121094 139.1875 C 155.210938 139.167969 155.292969 139.1875 155.375 139.210938 C 155.402344 139.195312 155.425781 139.183594 155.453125 139.167969 C 155.476562 139.152344 155.503906 139.136719 155.527344 139.121094 C 155.5 139.070312 155.511719 139.03125 155.574219 138.960938 C 156.914062 137.539062 158.425781 136.230469 159.921875 134.960938 C 160.773438 134.234375 161.667969 133.347656 162.707031 132.890625 C 161.613281 132.417969 160.667969 131.664062 160 130.675781 C 159.039062 129.242188 158.890625 127.550781 158.890625 125.875 C 158.890625 124.917969 158.953125 123.957031 158.929688 123.015625 C 158.894531 121.941406 158.546875 120.976562 158.410156 119.957031 C 158.304688 119.953125 158.210938 119.96875 158.105469 119.964844 C 158.910156 121.550781 158.757812 123.316406 158.261719 125.074219 C 157.378906 128.3125 156.328125 131.617188 155.109375 134.746094 C 155.027344 134.964844 154.703125 134.875 154.785156 134.65625 L 154.796875 134.617188 C 154.738281 134.582031 154.710938 134.53125 154.691406 134.4375 C 154.679688 131.367188 155.0625 128.273438 155.425781 125.261719 C 155.628906 123.707031 155.621094 121.898438 156.253906 120.441406 C 153.519531 123.550781 153.628906 128.820312 150.910156 132.019531 C 149.949219 133.152344 148.472656 134.035156 146.925781 133.964844 C 144.949219 133.863281 144.144531 132.101562 142.640625 131.152344 C 142.433594 131.03125 142.617188 130.6875 142.820312 130.808594 C 143.054688 130.914062 143.234375 131.050781 143.457031 131.199219 C 144.148438 128.882812 145.566406 126.875 147.476562 125.371094 C 147.691406 125.210938 148.003906 125.511719 147.785156 125.671875 C 145.886719 127.136719 144.625 129.054688 143.980469 131.339844 C 143.960938 131.421875 143.921875 131.476562 143.871094 131.503906 C 144.152344 131.757812 144.421875 132.046875 144.730469 132.347656 C 145.882812 133.464844 147.394531 133.832031 148.882812 133.082031 C 151.105469 131.945312 151.816406 129.417969 152.53125 127.261719 C 153.292969 124.945312 153.859375 121.335938 155.777344 119.484375 C 155.734375 119.472656 155.695312 119.460938 155.652344 119.453125 C 155.289062 119.351562 154.949219 119.238281 154.695312 118.976562 C 154.679688 118.949219 154.667969 118.921875 154.613281 118.886719 C 153.375 119.835938 152.109375 120.730469 150.871094 121.679688 C 150.707031 121.808594 150.464844 121.503906 150.628906 121.375 C 151.851562 120.402344 153.058594 119.402344 154.304688 118.414062 C 154.257812 118.269531 154.210938 118.125 154.175781 118.007812 C 151.5625 119.300781 148.457031 119.4375 145.8125 120.851562 C 143.847656 121.910156 137.222656 127.789062 141.75 129.714844 C 141.941406 129.808594 141.808594 130.054688 141.621094 130.027344 C 141.433594 129.996094 141.269531 129.953125 141.09375 129.882812 C 142.011719 132.742188 137.886719 134.5625 138.152344 137.417969 C 138.160156 137.484375 138.148438 137.523438 138.121094 137.539062 C 138.105469 137.753906 137.824219 137.914062 137.652344 137.738281 C 134.683594 134.585938 135.082031 130.867188 136.246094 127.15625 C 135.125 127.832031 134.015625 128.464844 132.898438 129.144531 C 132.964844 129.136719 133.003906 129.148438 133.046875 129.160156 C 134.558594 130.003906 134.746094 131.949219 134.367188 133.5 C 133.695312 136.210938 129.960938 138.589844 130.644531 141.515625 C 130.695312 141.726562 130.515625 141.828125 130.355469 141.785156 C 130.355469 141.785156 130.328125 141.800781 130.3125 141.773438 C 128.46875 140.882812 128.878906 138.015625 129.089844 136.351562 C 129.359375 134.316406 129.941406 132.34375 130.671875 130.453125 C 128.523438 131.785156 126.464844 133.207031 124.515625 134.765625 C 124.558594 134.777344 124.597656 134.789062 124.640625 134.800781 C 126.019531 135.71875 126.535156 137.335938 126.335938 138.957031 C 125.992188 141.582031 122.96875 143.828125 123.410156 146.449219 L 123.421875 146.476562 C 123.632812 146.902344 122.988281 147.273438 122.777344 146.84375 C 121.164062 143.425781 121.054688 139.65625 122.726562 136.304688 C 121.425781 137.496094 120.195312 138.816406 119.066406 140.25 C 118.917969 141.601562 118.613281 143.042969 117.742188 144.089844 C 116.433594 145.691406 113.992188 146.507812 112.210938 147.460938 C 112.160156 147.492188 112.09375 147.496094 112.054688 147.484375 C 111.914062 147.597656 111.746094 147.421875 111.867188 147.28125 C 111.851562 147.191406 111.871094 147.109375 111.976562 147.050781 C 112 147.035156 112.054688 147.003906 112.078125 146.992188 C 113.0625 145.777344 113.613281 144.230469 114.566406 142.96875 C 115.605469 141.617188 116.800781 140.660156 118.375 139.996094 C 118.453125 139.953125 118.507812 139.988281 118.574219 139.984375 C 119.785156 138.335938 121.132812 136.808594 122.597656 135.421875 C 121.082031 136.121094 119.414062 136.492188 117.753906 136.523438 C 115.453125 136.574219 113.890625 135.519531 111.792969 134.84375 C 111.59375 134.855469 111.457031 134.554688 111.648438 134.410156 C 115.5 131.757812 120.882812 130.28125 125 133.222656 C 126.679688 131.851562 128.441406 130.566406 130.277344 129.34375 C 128.6875 129.261719 127.113281 128.902344 125.5625 128.523438 C 123.792969 128.066406 121.425781 127.644531 120.824219 125.699219 C 120.808594 125.671875 120.769531 125.660156 120.753906 125.632812 C 120.589844 125.523438 120.65625 125.28125 120.785156 125.207031 C 120.871094 125.121094 120.992188 125.089844 121.0625 125.21875 C 121.078125 125.242188 121.078125 125.242188 121.09375 125.269531 C 122.785156 126.25 124.421875 125.105469 126.105469 124.757812 C 127.050781 124.554688 128.019531 124.515625 128.996094 124.605469 C 130.789062 124.808594 132.824219 125.488281 134.070312 126.828125 C 134.085938 126.851562 134.101562 126.878906 134.117188 126.90625 C 136.699219 125.320312 139.328125 123.816406 141.886719 122.246094 C 136.988281 121.527344 129.90625 123.980469 127.941406 117.925781 C 127.875 117.6875 128.238281 117.546875 128.332031 117.769531 C 129.695312 118.117188 131.042969 117.722656 132.425781 117.75 C 133.425781 117.757812 134.40625 117.914062 135.363281 118.152344 C 137.375 118.675781 139.320312 119.679688 140.773438 121.140625 C 140.789062 121.164062 140.800781 121.191406 140.816406 121.21875 C 141.484375 121.246094 142.117188 121.394531 142.695312 121.746094 C 142.746094 121.71875 142.796875 121.6875 142.851562 121.660156 C 144.117188 120.523438 145.636719 119.652344 147.207031 118.992188 C 147.726562 118.761719 148.3125 118.527344 148.914062 118.320312 C 145.464844 118.039062 142 116.535156 138.652344 115.890625 C 138.425781 115.851562 138.523438 115.484375 138.753906 115.527344 C 138.859375 115.53125 138.941406 115.554688 139.0625 115.585938 C 139.085938 115.574219 139.113281 115.558594 139.164062 115.527344 C 143.160156 115.394531 147.332031 114.128906 151.285156 114.875 C 150.117188 114.449219 148.949219 114.027344 147.851562 113.421875 C 146.011719 112.425781 144.734375 110.488281 143.84375 108.640625 C 142.246094 105.316406 144.886719 102.160156 148.265625 101.660156 C 148.449219 101.621094 148.503906 101.898438 148.320312 101.933594 C 146.09375 102.355469 143.519531 104.550781 144.085938 107.03125 C 144.410156 108.554688 145.898438 110.609375 146.964844 111.640625 C 148.851562 113.433594 151.824219 113.367188 153.738281 114.976562 C 153.941406 114.550781 154.308594 114.238281 154.726562 113.894531 C 154.753906 113.878906 154.753906 113.878906 154.765625 113.839844 C 153.503906 112.953125 151.921875 112.699219 150.609375 111.84375 C 149.464844 111.097656 148.621094 110.109375 147.96875 108.910156 C 147.882812 108.753906 148.085938 108.636719 148.199219 108.777344 C 149.28125 110.484375 150.769531 111.648438 152.683594 112.296875 C 153.617188 112.613281 154.378906 112.863281 155.074219 113.421875 C 155.160156 113.269531 155.203125 113.109375 155.273438 112.933594 C 153.847656 111.285156 151.472656 110.425781 150.917969 108.140625 C 150.882812 107.957031 151.132812 107.917969 151.179688 108.0625 C 151.808594 110.230469 154.378906 110.777344 155.640625 112.378906 C 155.765625 112.238281 155.945312 112.136719 156.125 112.03125 C 155.414062 110.730469 155.375 109.109375 154.84375 107.707031 C 153.917969 105.191406 152.027344 102.375 149.1875 102.019531 C 148.933594 101.992188 148.914062 101.59375 149.191406 101.605469 C 151.285156 101.671875 152.855469 103.097656 154.085938 104.652344 C 154.746094 105.503906 155.328125 106.402344 155.730469 107.402344 C 156.167969 108.519531 156.285156 109.683594 156.640625 110.78125 C 156.15625 107.363281 157.496094 103.550781 159.558594 101 C 159.683594 100.859375 159.855469 101.039062 159.796875 101.171875 C 159.882812 101.089844 160.050781 101.199219 160.015625 101.320312 C 159.144531 104.042969 160.589844 106.5 160.804688 109.144531 C 160.859375 109.660156 160.769531 110.160156 160.621094 110.617188 C 161.964844 108.960938 163.359375 107.269531 164.90625 105.90625 C 166.082031 104.855469 167.480469 104.191406 169.039062 104.699219 C 169.09375 104.496094 169.175781 104.28125 169.253906 104.0625 C 169.324219 103.886719 169.613281 104.027344 169.570312 104.191406 C 167.765625 109.226562 173.242188 113.40625 177.34375 115.128906 C 179.453125 116.003906 181.605469 116.414062 183.851562 116.5625 C 185.453125 116.671875 187.117188 116.710938 188.601562 117.328125 C 189.011719 117.503906 188.8125 118.234375 188.371094 118.179688 C 183.375 117.585938 178.488281 117.480469 174.171875 114.550781 C 173.992188 114.414062 173.785156 114.292969 173.589844 114.132812 C 172.304688 115.175781 170.992188 116.167969 169.328125 116.132812 C 171.875 116.757812 174.554688 117.546875 176.941406 118.609375 C 177.023438 118.628906 177.042969 118.722656 177.003906 118.777344 C 177.050781 118.917969 176.941406 119.085938 176.753906 119.058594 C 176.121094 118.90625 175.464844 118.839844 174.796875 118.808594 C 174.777344 118.890625 174.714844 118.960938 174.605469 118.953125 C 174.113281 118.929688 173.644531 118.886719 173.152344 118.863281 C 169.882812 119.128906 166.398438 120.101562 163.542969 118.761719 C 163.8125 119.050781 164.09375 119.300781 164.449219 119.507812 C 165.027344 119.859375 165.664062 120.074219 166.265625 120.347656 C 167.453125 120.863281 168.355469 121.542969 168.964844 122.667969 C 169.214844 122.386719 169.503906 122.117188 169.800781 121.914062 C 172.054688 120.175781 175.09375 119.324219 177.882812 118.992188 C 180.761719 118.640625 183.886719 119.554688 186.675781 118.570312 C 187.105469 118.425781 187.414062 119.136719 186.972656 119.324219 C 185.246094 120.074219 183.519531 119.867188 181.675781 119.757812 C 179.234375 119.621094 176.800781 119.851562 174.429688 120.558594 C 171.488281 121.457031 168.976562 122.863281 167.789062 125.871094 C 167.371094 126.929688 166.9375 128.207031 166.894531 129.328125 C 166.855469 130.339844 167.15625 131.160156 167.648438 131.835938 C 167.617188 131.785156 167.640625 131.703125 167.703125 131.632812 C 168.910156 130.15625 170.558594 129.207031 172.195312 128.304688 C 172.375 128.203125 172.523438 128.457031 172.34375 128.5625 C 170.75 129.542969 169.25 130.507812 167.996094 131.910156 C 167.960938 131.964844 167.894531 131.96875 167.867188 131.980469 C 167.972656 131.988281 168.042969 132.050781 168.105469 132.15625 C 168.175781 132.285156 168.210938 132.402344 168.285156 132.53125 C 168.371094 132.617188 168.46875 132.730469 168.582031 132.804688 C 168.9375 132.292969 169.621094 131.9375 170.101562 131.695312 C 170.269531 131.632812 170.386719 131.839844 170.234375 131.925781 C 169.871094 132.132812 169.539062 132.390625 169.265625 132.6875 C 169.140625 132.828125 169.039062 132.953125 168.929688 133.117188 C 169.109375 133.253906 169.28125 133.429688 169.460938 133.566406 C 169.671875 133.753906 169.378906 134.023438 169.160156 133.875 C 168.976562 133.742188 168.808594 133.5625 168.628906 133.429688 L 168.601562 133.441406 C 170.011719 138.109375 166.289062 142.191406 162.847656 145.085938 Z M 254.953125 123.320312 C 254.511719 124.464844 253.769531 125.4375 252.546875 125.929688 C 252.132812 126.101562 251.660156 126.234375 251.214844 126.355469 C 254.441406 126.488281 257.664062 126.558594 260.78125 125.25 C 260.976562 125.171875 261.167969 125.4375 260.960938 125.558594 C 258.980469 126.761719 256.652344 127 254.363281 127.011719 C 252.398438 127.042969 250.390625 127.066406 248.367188 126.996094 C 250.429688 127.488281 252.476562 128.195312 254.328125 128.980469 C 254.367188 128.925781 254.445312 128.882812 254.511719 128.878906 C 256.050781 128.816406 257.40625 129.03125 258.96875 128.714844 C 260.351562 128.4375 261.722656 127.960938 262.945312 127.292969 C 264.636719 126.359375 265.976562 124.871094 267.84375 124.488281 C 263.589844 123.160156 259.296875 121.34375 254.953125 123.320312 Z M 265.144531 134.890625 C 266.472656 135.292969 267.835938 135.402344 269.1875 135.789062 C 270.984375 136.296875 272.679688 137.105469 274.347656 137.929688 C 274.5 138.011719 274.382812 138.285156 274.21875 138.242188 C 272.179688 137.425781 270.113281 136.628906 267.933594 136.234375 C 266.832031 136.042969 265.671875 135.992188 264.601562 135.613281 C 266.59375 137.890625 269.027344 139.097656 272.242188 139.511719 C 274.761719 139.847656 276.796875 140.765625 278.867188 142.109375 C 277.542969 139.378906 275.546875 137.207031 272.652344 135.925781 C 270.097656 134.753906 267.722656 134.851562 265.144531 134.890625 Z M 260.105469 137.265625 C 260.582031 137.917969 260.96875 138.652344 261.304688 139.417969 C 262.273438 141.703125 263.03125 144.105469 263.898438 146.449219 C 263.988281 146.671875 263.597656 146.824219 263.507812 146.605469 C 262.042969 143.273438 260.882812 139.042969 258.097656 136.570312 C 259 138.207031 259.300781 139.984375 259.558594 141.925781 C 260 145.5 262.175781 147.570312 265.234375 148.964844 C 264.53125 146.359375 265.839844 143.691406 264.40625 141.128906 C 263.386719 139.285156 261.820312 138.164062 260.105469 137.265625 Z M 257.847656 136.132812 C 257.859375 136.15625 257.875 136.183594 257.890625 136.210938 L 257.902344 136.167969 C 257.886719 136.144531 257.847656 136.132812 257.847656 136.132812 Z M 255.441406 118.496094 C 255.558594 119.65625 255.570312 121.050781 255.246094 122.335938 C 259.425781 120.3125 264.984375 122.839844 268.910156 124.316406 C 269.167969 124.410156 269.085938 124.800781 268.832031 124.777344 C 268.792969 124.828125 268.730469 124.902344 268.625 124.894531 C 265.855469 125.078125 263.515625 127.921875 260.953125 128.949219 C 259.585938 129.492188 257.882812 129.921875 256.292969 129.839844 C 258.78125 131.011719 261.21875 132.457031 263.296875 134.171875 C 263.371094 134.128906 263.480469 134.136719 263.539062 134.238281 C 263.578125 134.25 263.644531 134.246094 263.699219 134.28125 C 263.714844 134.308594 263.742188 134.292969 263.742188 134.292969 C 270.011719 132.035156 278.472656 136.523438 279.980469 142.976562 C 280.085938 143.394531 279.480469 143.539062 279.324219 143.148438 C 279.3125 143.121094 279.296875 143.097656 279.265625 143.042969 C 279.226562 143.03125 279.160156 143.039062 279.105469 143 C 277.492188 141.976562 275.886719 140.910156 274.007812 140.378906 C 272.414062 139.925781 270.710938 139.945312 269.125 139.382812 C 266.925781 138.589844 264.953125 137.121094 263.671875 135.1875 C 263.519531 135.101562 263.355469 134.992188 263.214844 134.867188 C 263.089844 134.769531 263.082031 134.636719 263.105469 134.554688 C 260.1875 132.636719 257.324219 130.925781 254.0625 129.648438 C 255.132812 130.503906 256.03125 131.527344 256.457031 132.753906 C 256.722656 133.457031 256.914062 134.203125 257.007812 134.972656 C 257.035156 134.957031 257.050781 134.980469 257.074219 134.964844 C 259.96875 136.011719 262.992188 137.527344 264.6875 140.183594 C 265.488281 141.398438 265.855469 142.761719 265.789062 144.199219 C 265.714844 145.917969 265.617188 147.480469 265.6875 149.21875 C 265.773438 149.304688 265.679688 149.5 265.546875 149.503906 C 263.210938 149.613281 260.9375 147.496094 259.730469 145.691406 C 258.960938 144.523438 258.6875 143.277344 258.558594 141.914062 C 258.34375 139.984375 257.960938 138.425781 257.167969 136.796875 C 257.191406 138.214844 256.964844 139.613281 256.476562 140.851562 C 256.394531 141.066406 256.070312 140.980469 256.113281 140.753906 C 256.664062 138.246094 256.597656 134.726562 255.28125 132.4375 C 254.085938 130.351562 251.042969 128.503906 248.65625 128.402344 C 247.042969 128.335938 245.722656 128.476562 244.195312 127.84375 C 241.679688 126.859375 239.925781 127.386719 237.402344 127.875 C 237.035156 127.949219 236.804688 127.429688 237.140625 127.238281 C 238.882812 126.339844 240.804688 125.925781 242.683594 126.28125 C 244.886719 125.945312 247.109375 126.175781 249.34375 125.957031 C 251.3125 125.75 253.015625 125.253906 253.871094 123.460938 C 253.839844 123.347656 253.84375 123.171875 253.996094 123.082031 C 254.023438 123.070312 254.046875 123.054688 254.074219 123.039062 C 254.085938 123 254.121094 122.945312 254.132812 122.902344 C 254.574219 121.519531 254.523438 119.941406 254.351562 118.503906 C 254.3125 117.839844 255.363281 117.820312 255.441406 118.496094 Z M 203.746094 121.234375 C 205.621094 122.417969 207.035156 124.105469 209.109375 125.039062 C 211.429688 126.101562 214.234375 126.511719 216.707031 125.8125 C 216.757812 125.785156 216.777344 125.875 216.710938 125.878906 C 214.242188 126.644531 211.933594 126.738281 209.476562 125.855469 C 207.289062 125.089844 204.601562 123.621094 203.316406 121.621094 C 203.15625 121.402344 203.484375 121.078125 203.746094 121.234375 " fill-opacity="1" fill-rule="nonzero" style="fill: rgb(255, 79, 158);"/>
            </g>
          </g>
        </g>
      </g>
    </g>
  </g>
</svg>